<?xml version="1.0" encoding="UTF-8" standalone="no"?>
<svg
   xmlns:dc="http://purl.org/dc/elements/1.1/"
   xmlns:cc="http://creativecommons.org/ns#"
   xmlns:rdf="http://www.w3.org/1999/02/22-rdf-syntax-ns#"
   xmlns:svg="http://www.w3.org/2000/svg"
   xmlns="http://www.w3.org/2000/svg"
   viewBox="0 0 2933.3333 2933.3333"
   height="2933.3333"
   width="2933.3333"
   xml:space="preserve"
   id="svg2"
   version="1.1"><metadata
     id="metadata8"><rdf:RDF><cc:Work
         rdf:about=""><dc:format>image/svg+xml</dc:format><dc:type
           rdf:resource="http://purl.org/dc/dcmitype/StillImage" /></cc:Work></rdf:RDF></metadata><defs
     id="defs6" /><g
     transform="matrix(1.3333333,0,0,-1.3333333,0,2933.3333)"
     id="g10"><g
       transform="scale(0.1)"
       id="g12"><g
         transform="scale(1.34969)"
         id="g14"><path
           id="path16"
           style="fill:#ffffff;fill-opacity:1;fill-rule:nonzero;stroke:none"
           d="M 16300,16300 V 0 H 0 v 16300 h 16300" /></g><path
         id="path18"
         style="fill:#040606;fill-opacity:1;fill-rule:nonzero;stroke:none"
         d="m 11932.8,13267.4 c 2,-11.9 6,-26.5 6.9,-36.3 11.1,-12.2 6,3.9 -6.9,36.3" /><path
         id="path20"
         style="fill:#040606;fill-opacity:1;fill-rule:nonzero;stroke:none"
         d="m 11885.5,13488.3 c -18.8,79 -37.6,158 -52.2,219.2 -24.1,-25 -11.8,-109.7 14.1,-200.6 25.4,-91 65.1,-187.3 85.4,-239.5 -9.8,63 -28.5,141.9 -47.3,220.9" /><path
         id="path22"
         style="fill:#040606;fill-opacity:1;fill-rule:nonzero;stroke:none"
         d="m 11824.5,13336.9 c 8,-43.6 17.1,-87.1 26.8,-130.7 -3.7,22.8 -2.5,36.5 -2.4,50.4 0.1,18.9 -3.5,37.7 -24.4,80.3" /><path
         id="path24"
         style="fill:#040606;fill-opacity:1;fill-rule:nonzero;stroke:none"
         d="m 11851.3,13206.2 c 1.4,-7.9 3.3,-17 6.1,-27.6 -2.1,9.2 -4,18.4 -6.1,27.6" /><path
         id="path26"
         style="fill:#040606;fill-opacity:1;fill-rule:nonzero;stroke:none"
         d="m 11921.4,13163.5 c -3.3,28.9 -5.3,58 -8,86.8 l -23,1.1 c 10.3,-29.3 20,-58.8 31,-87.9" /><g
         transform="scale(1.16725)"
         id="g28"><path
           id="path30"
           style="fill:#040606;fill-opacity:1;fill-rule:nonzero;stroke:none"
           d="m 13462.1,16272.6 20.2,-4.4 c -22,31.8 -23.1,21.5 -20.2,4.4" /></g><g
         transform="scale(1.06859)"
         id="g32"><path
           id="path34"
           style="fill:#040606;fill-opacity:1;fill-rule:nonzero;stroke:none"
           d="m 15188.8,16275.9 -20.6,24.1 c -0.9,-6 -0.9,-12.3 -1.5,-18.5 5.8,-5.9 13.1,-8.3 22.1,-5.6" /></g><g
         transform="scale(1.19784)"
         id="g36"><path
           id="path38"
           style="fill:#040606;fill-opacity:1;fill-rule:nonzero;stroke:none"
           d="m 12831.5,16300 c 5,-22.1 13.2,-44.1 23.4,-64.7 13.4,2.1 7.7,27.7 -23.4,64.7" /></g><g
         transform="scale(1.03899)"
         id="g40"><path
           id="path42"
           style="fill:#040606;fill-opacity:1;fill-rule:nonzero;stroke:none"
           d="m 15651.5,16300 c -2.3,-29.7 -3,-55.6 -4.6,-83.3 6.8,18.7 10.2,48.4 4.6,83.3" /></g><path
         id="path44"
         style="fill:#040606;fill-opacity:1;fill-rule:nonzero;stroke:none"
         d="m 12137.7,12859.4 c -0.8,-22 4,-47.4 12.2,-74.7 6.3,14.4 11.6,30.8 -12.2,74.7" /><g
         transform="scale(1.23029)"
         id="g46"><path
           id="path48"
           style="fill:#040606;fill-opacity:1;fill-rule:nonzero;stroke:none"
           d="m 9337.61,13167.1 c 6.18,8.6 13.17,16.9 19.84,28.3 6.82,11.4 13.41,25.8 18.45,46.6 3.49,-58.2 -5.53,-80.4 -18.45,-96.8 -12.77,-16.3 -28.54,-26.6 -35.36,-60.8 -5.37,46.7 3.25,65.4 15.52,82.7 z m 72.02,179 c 8.53,-70.6 0.73,-77.3 -13.74,-121.6 -7.48,16 -1.54,77.1 13.74,121.6 z m 58.6,-1375.8 c 8.21,23.6 19.18,9.7 26.09,18.2 1.47,-52.2 -10.73,-122 -30.15,-63.5 z m 437.94,2601.8 c -12.51,-31 -24.87,-62 -36.9,-93.1 -0.97,3.7 -0.56,8.7 0.49,15 2.84,15.8 9.67,39 10.49,65.3 1.13,-8.7 12.43,-2.5 25.92,12.8 z m 364.93,967.9 c 11.3,15.3 25.3,29.7 36.8,41.6 23.7,23.6 40.8,35.6 28.3,15.3 -31.2,-50.9 -14.4,-45.5 5.1,-36.4 19.5,9.1 41.8,21.9 23.5,-12.2 11.7,16.6 23.3,33.3 35.9,49.3 -10.8,-23.2 -19.4,-37.6 -28,-46.5 -8.6,-8.9 -16.8,-12.5 -25,-15 -16.3,-5.1 -33.1,-5.6 -50.2,-36.4 7.8,13.6 15.3,27.4 23.7,40.7 1.5,22.3 -13.2,10.8 -30.4,-6.2 -16.8,-17.2 -36.6,-39.5 -47.3,-37.4 6,12.7 16.2,28.1 27.6,43.2 z m 94,171 c 9.7,13 21,22.7 32.7,30.5 23.7,15.6 48.7,23.8 70,33.6 5.5,3.4 10.3,6.8 17,10.1 -5.1,-3.8 -11,-7.2 -17,-10.1 -8.3,-5.2 -15.7,-10.5 -21.7,-16.1 -5.9,-5.7 -11,-11.4 -15.5,-17.1 -9,-11.4 -15.8,-22.6 -22.8,-32.9 -14.4,-20.5 -28.1,-38.2 -64.7,-47.9 5.1,20.5 12.7,36.8 22,49.9 z m 869.1,424.5 c 11.4,-0.6 23.3,-1.2 35,-1.8 11.6,-0.5 23.2,-1.7 33.9,-2.1 21.4,-0.6 40.1,-1.1 51.4,2.9 11.4,4 15.8,12.1 8.2,26.6 8.8,-6.8 17.4,-14.1 25.9,-21.4 -7.7,-1 -15.5,-1.9 -23.3,-3.4 14.2,-1.3 28.3,-3.3 42.3,-5.1 -39.1,-1.4 -78.1,-4.8 -116.9,-10.4 -20.9,3.3 -40.5,6.4 -58.5,9.2 -20.6,2.9 -39.5,4.4 -56.3,3.7 14.4,2 35.5,2.7 58.3,1.8 z m 879.3,-108.7 c 27,-20.6 40.1,-30.6 62.3,-41.1 -6.6,22 -56,74.5 -9.5,54.6 5.6,-8 15.6,-18.4 27.5,-29.2 12.1,-10.8 25.6,-22.9 37.9,-34.7 12.5,-11.7 23.6,-23.3 30.7,-33.4 7.2,-10 10.5,-18.3 7.3,-23.6 -8.3,9.8 -17.2,18.1 -26.3,25.3 -9.1,7.1 -18.6,12.6 -27.9,17.5 -18.6,9.8 -37.1,15.5 -53,20.5 -31.5,10.2 -53.2,16.3 -49,44.1 z m 316.2,-167.6 26.4,-25 c 8.7,-8.3 17.4,-16.8 25.8,-25.5 11.9,-8.7 23.4,-18.3 32.1,-33 -10.3,11.4 -21.4,22 -32.1,33 -15.1,11.2 -30.8,17.8 -41.1,24.8 -10.4,7 -15.6,14.3 -11.1,25.7 z m 673.9,-2841.2 c 9.3,15 19,32.2 30.7,54.8 5.1,-61.6 -10.1,-99.2 -26.4,-119.1 -16.7,-19.9 -36.4,-22.2 -46.7,-13.8 -29.3,-80.8 -0.2,-68 -0.4,-113.4 l -28.9,32.8 c 16.8,58.8 30.4,89.9 46,117.3 7.8,13.7 16.1,26.5 25.7,41.4 z m 55.9,160.5 5.6,-156.4 c 2.9,-13.7 3.1,-30.3 0,-50.7 -0.1,16.9 0.3,33.8 0,50.7 -13,61.4 -59.9,76.9 -5.6,156.4 z m -148.6,-543.6 c 2,-0.7 4,-0.9 6.1,-0.9 -2.2,-0.9 -4.2,-0.7 -6.1,0.9 z m -65.1,-680.3 -25.2,-36.2 c 20.5,109.1 16.4,50.9 25.2,36.2 l 30.1,44 c -17.3,-47.4 -25.4,-50.9 -30.1,-44 z m -10.4,100.5 c 5.7,22.5 11.8,46.8 17.3,68.5 11,43.4 19.9,76.5 18,65.5 8.9,-9.9 2.1,-49.5 -9.8,-91 -5.9,-20.7 -13.1,-41.9 -20.2,-59.9 -7,-18.1 -14.1,-33 -20.4,-41.2 4.6,14.6 9.3,35.6 15.1,58.1 z m -30.2,213.6 c 1.9,6.6 3.7,13.3 5.5,19.9 10.9,15.6 21.7,23.4 29.6,14.5 -23,-54.4 -28.2,-38.5 -35.1,-34.4 z m -356.6,-953.9 c -2.8,-8.2 -6.1,-17.1 -9.6,-25.9 -3.9,-8.8 -8.2,-17.5 -12.2,-25.7 -8.2,-16.5 -15.8,-31 -20.3,-39.4 -20,-16.9 -40.3,-36 -60.3,-57.1 4,7 8.1,13.9 12,20.9 32,56.5 62.7,113.6 92.3,171.3 8.9,-2.2 5.8,-20.7 -1.9,-44.1 z m -146.4,-319.8 c -26.6,-29.7 -53.8,-81.4 -60.8,-108.7 21.3,5 50.6,58.4 71.6,73.1 -4.4,-23.7 -20.1,-49 -39.2,-73.3 -19.6,-24.1 -43.2,-46.9 -62,-67.1 -9.6,-10 -17.8,-19.5 -24.4,-27.9 -6.7,-8.3 -11.2,-15.7 -12.8,-22.1 -3,-12.8 6.1,-21.6 35.5,-24.2 -16.3,-12.3 -48.6,-41.5 -75.7,-61.2 -27.7,-19.3 -49.4,-29.5 -42.9,-6.3 8.3,9.9 17.5,20.9 26.6,33.2 9.1,12.4 18.5,25.7 28.1,39.7 9.6,14 19.4,28.7 29.1,43.6 9.7,14.9 18.6,30.7 27.6,46 36.4,61.4 65.1,123.7 77.6,161.3 -2.2,6.6 -1.4,16.1 6.6,31.7 0.6,-6.3 -2,-18.3 -6.6,-31.7 3.1,-7.3 11.5,-9.4 21.7,-6.1 9.9,11.5 19.6,20.8 28.2,23 -6.8,-11.7 -17.9,-20 -28.2,-23 z m -287.8,-318.2 c 22.5,28 44.6,56.3 66.2,85 -6.2,-21.1 -12.6,-42.3 -19.8,-63.1 -17.6,-11.7 -32.6,-18 -46.4,-21.9 z m 20.6,-58.6 c -7.2,-13.9 -16.7,-27.6 -27.7,-41.2 -11.2,-13.5 -23.8,-26.8 -37.7,-40 -13.9,-13.2 -29.8,-25.5 -45.7,-38 -16.2,-12.4 -32.9,-24.7 -49.7,-36.9 -17.1,-12.1 -34.8,-23.5 -51.8,-35.3 -17.2,-11.7 -33.9,-23.4 -49.9,-35.3 -16.4,-11.4 -32,-23 -46.3,-34.9 5.3,0.1 17.6,8.8 31.5,17.5 6.9,4.4 14.1,8.8 20.9,12.2 6.7,3.5 13,6 18.4,6.2 -8.9,-10.9 -18.5,-21 -28.4,-31 -10,-10 -20,-19.8 -30.4,-29.4 -10.3,-9.6 -20.7,-19 -31.3,-28.3 -10.8,-9.1 -22.1,-17.6 -33.3,-26.1 -22.5,-16.8 -45,-33.5 -68.3,-48.7 -23.6,-14.7 -47.3,-28.8 -70.5,-42.5 -23,-14.1 -47.4,-25.4 -70.4,-37.5 -9.5,-4.8 -18.9,-9.6 -28.3,-14.4 183.8,123.7 349.2,275.6 497,445 6.7,4.7 13.5,9.4 20.1,14.3 16.7,11.6 33.2,23.1 49.2,34.2 16.4,11 31.2,22.7 46.2,33.3 -2.1,-14.6 -6.7,-29 -13.6,-43.2 z m -372.2,-399.1 -20.5,-16.8 c -6.8,-5.5 -14,-10.6 -21,-15.9 17,18.7 32.3,39.2 48.3,58.9 z m -876.2,-489.71 c -17.6,9.02 -34.7,18.53 -51.4,28.14 15.5,0.66 31.1,1.51 46.6,2.61 15.4,1.64 31,2.59 46.5,4.86 -13.4,-12.45 -27.4,-23.66 -41.7,-35.61 z M 9280.8,12931.7 c 8.04,7.3 16.41,14.7 24.62,22 -16.33,-138.1 -11.21,-227.4 -6.66,-319.9 2.52,-46.3 3.9,-93.5 4.63,-148.3 0.24,-27.5 -0.73,-56.8 -1.7,-89 -0.82,-32.2 -2.44,-67.2 -5.29,-105.8 3.25,-42.1 4.96,-30.4 7.23,-8 2.61,22.4 6.1,55.4 12.36,56.1 16.91,-45.8 3.42,-153.6 -5.93,-177.5 34.05,25.7 20.16,154.5 50.55,57.1 -15.28,-70 30.81,48.1 27.32,-74 l -42.27,-49.8 c 5.52,-33.9 14.39,-36.8 22.03,-44.8 7.72,-8 13.41,-20.9 15.28,-74.6 -5.29,-61.9 -20.57,-25.5 -33.57,2.1 -13.01,27.6 -23.82,46.1 -19.92,-53.7 1.22,-12.5 3.99,-25 7.89,-37.7 4.06,-12.6 9.43,-25.5 15.44,-38.7 11.95,-26.4 26.66,-54.2 40.8,-84.8 14.72,-30.5 29.18,-63.8 39.67,-101.4 2.68,-9.4 5.04,-19.1 7.15,-29.1 2.36,-9.9 4.47,-20.2 6.18,-30.8 3.41,-21.2 5.53,-43.7 5.93,-67.8 11.3,-40 21.62,-53.7 29.27,-55.7 7.8,-2 13.89,8 19.18,15.7 10.65,15.5 18.21,22.6 31.05,-89.7 l 2.6,73.6 1.38,36.7 2.11,36.7 c 9.35,-18.4 18.78,-19.8 26.66,-31.2 4.39,-26.6 9.11,-53.2 13.9,-79.8 -5.28,-16.1 -10.73,-37.9 -13.57,-61.6 -3.09,-26.4 -3.82,-55.3 0.08,-81.4 -2.85,98.6 14.96,69.1 35.44,29.3 7.8,-38.2 15.93,-76.3 24.55,-114.4 63.88,-281.5 151.59,-562.3 300.33,-808.4 2.03,-13.5 9.1,-21.1 18.04,-29 14.23,-22.6 28.86,-45 44.22,-66.9 18.52,-26.4 37.92,-52.2 58.02,-77.3 134.4,-167.2 316.2,-280.85 514,-332.33 5.1,-4.56 18.1,-11.56 33.9,-18.37 9.2,-3.86 19.2,-8.32 29.1,-12.1 9.8,-3.73 19.3,-7.48 27.4,-11.03 16.2,-6.59 26.6,-12.27 21.2,-16.27 -2.8,-1.97 -9.5,-3.49 -21.4,-4.38 -6,-0.23 -13.3,-0.21 -22,0.01 -6.5,0.12 -13.7,0.44 -21.7,1.13 1.5,-0.17 3.2,-0.38 5.2,-0.61 8.7,-0.81 20.9,-2.01 34.3,-4.12 13.5,-1.76 28.3,-4.04 42.5,-7.42 14.2,-2.84 27.7,-7.27 38.8,-12.7 -16.5,8.36 -28.4,16.72 -38.9,24.08 -10.5,7.81 -19.5,15.11 -29.9,21.76 -10.5,6.69 -22.2,13.65 -38.2,19.88 -11.8,5.23 -25.9,10.26 -43.3,16.03 191.5,-46.2 397,-34.62 588.7,42.75 1.7,0.79 3.4,1.49 5.3,2.29 75.5,30.81 148.5,66.4 219.1,106 8.4,3.1 18.1,7.1 28.3,11.3 36.5,16.4 77.5,35.5 73.3,10.1 -20.9,-9.3 -40.3,-22.1 -59.4,-34.3 -19.2,-11.9 -37.3,-24.4 -54,-35.41 -32.9,-22.63 -61.8,-35.97 -80.4,-26.15 29,-12.91 -16.8,-37.51 -48.1,-54.18 -16,-7.58 -28.4,-13.06 -25.4,-15.11 2.6,-1.64 21.2,-1.46 65.1,8.79 -8.9,-5.27 -17.8,-10.58 -26.9,-15.88 -9.1,-5.12 -18.6,-9.5 -27.9,-14.23 -18.9,-9.26 -37.9,-18.37 -57.2,-27.3 -9.5,-4.33 -19.6,-9.22 -28.7,-12.97 -10.1,-3.92 -20.4,-7.84 -30.6,-11.77 -10.2,-3.98 -20.6,-6.95 -31,-10.41 -10.3,-3.48 -20.8,-6.44 -31.3,-9.17 -84.2,-23.25 -173.2,-31.39 -260.6,-27.01 -87.5,4.96 -173.5,22.93 -253.5,51.64 -80.1,28.82 -154.5,67.44 -220.7,112.89 6.2,-20.65 0.7,-31.77 -16.4,-33.68 24.5,-13.8 52.5,-28.19 81.3,-43.21 29.1,-14.23 59.1,-29.31 88.5,-42.55 58.2,-27.41 113.1,-50.64 142.8,-72.69 -20.2,-3.49 -41.4,0 -62,6.03 -20.3,6.66 -40,16.03 -57.1,26.32 -34.8,20.02 -60.2,41.37 -73,38.25 16,-12.76 42.8,-24.96 65.2,-36.34 11.2,-5.55 21.3,-11.17 28.3,-16.94 7,-5.49 10.9,-11.21 9.8,-17.32 -53.4,-0.89 -92,14.91 -123.5,34.52 -15.7,9.68 -29.8,20.74 -43.9,30.98 -13.9,10.91 -28.1,20.49 -43.3,29.94 13.3,-2.31 26.8,-3.75 40.1,-5.29 -46.3,30.63 -71.5,56.58 -87.6,77.34 -8,10.55 -14,19.58 -18.9,28.08 -4.5,8.65 -8.6,16.2 -12.7,23.85 -4.1,7.39 -8.3,14.65 -13.6,22.43 -5.4,7.75 -12.3,15.45 -21,24.65 -17.5,18.4 -44.3,40.3 -85.3,75.7 -38.4,17.2 -43,13.6 -40.8,0.9 2.1,-12.3 11.2,-32.8 -1.3,-46.7 -6.9,12.3 -21.9,27 -39.2,45 -9,8.7 -18.3,18.3 -28,28.4 -4.8,5 -9.9,10.1 -14.61,15.4 -4.55,5.4 -9.27,10.8 -13.9,16.2 -18.37,21.9 -36.82,44.1 -49.5,65.6 -12.27,21.9 -20.32,42.1 -19.43,59.2 12.85,-18.8 26.18,-37.3 39.43,-55.9 l 42.26,-53.8 c -12.19,20.8 -24.79,40.7 -37.14,60 -11.3,20 -22.84,39 -33.17,57.7 -9.91,18.9 -19.59,36.8 -27.63,54.2 -7.89,17.6 -14.71,34.3 -20,50 -3.65,-9.8 -8.12,-18.5 -0.81,-37.6 -6.83,17.8 -15.2,36.3 -22.92,55.2 -7.97,18.8 -16.26,37.4 -22.84,55.6 -13.9,35.9 -22.51,69.1 -19.18,91.4 -15.2,0.9 -30.08,2.1 -45.12,3.3 8.29,-8.7 18.7,-22.6 28.94,-39.2 5.12,-8.2 10.16,-17.2 15.28,-26.4 5.2,-9.1 10.33,-18.5 14.96,-27.9 4.79,-9.4 9.02,-18.9 13,-27.8 4.07,-8.9 7.56,-17.5 10.33,-25.4 5.6,-15.7 7.88,-29 6.01,-36.6 -9.43,-1.5 -19.1,5.8 -29.1,18.3 -9.92,12.6 -20.48,30.2 -29.59,50.1 -9.42,19.8 -18.61,41.4 -26.41,61.6 -8.05,20.1 -15.52,38.6 -21.95,52.3 5.94,-15.6 11.46,-30.3 16.66,-44.1 5.05,-13.9 9.76,-27 14.23,-39.3 9.27,-24.5 16.01,-46.8 22.92,-66.8 6.75,-20 11.95,-38.4 17.31,-55.4 5.45,-17.1 10.49,-32.9 15.37,-48.4 5.12,-15.5 11.05,-30.4 17.39,-45.7 6.34,-15.4 14.14,-30.7 23.73,-46.8 4.72,-8.1 9.84,-16.4 15.53,-25.1 5.69,-8.6 12.6,-17.1 19.75,-26.2 14.63,-18 31.21,-37.6 51.94,-58.8 -5.28,13 -9.59,26.1 -14.22,39 13.81,-12.1 26.33,-25.1 39.74,-38.2 12.84,-13.4 25.64,-26.6 37.94,-40.3 24.6,-27.5 49.3,-55 73.4,-82.01 24.4,-27.36 50.2,-53.05 76.3,-76.99 26.8,-23.2 54.3,-44.44 83.3,-60.18 -18.3,5.38 -30.7,6.64 -37.3,4.21 -6.7,-2.39 -7.3,-8.24 -1.4,-15.82 68.2,-32.07 137.3,-58.91 208,-81.33 70.9,-21.46 143.5,-38.94 218.8,-47.88 37.5,-5.12 75.7,-7.15 114.3,-8.29 38.6,-0.32 77.7,0.98 117,5.12 39.4,4.39 79,10.41 118.4,20.24 l 14.9,3.5 14.8,4.14 c 9.8,2.85 19.7,5.53 29.5,8.62 19.6,6.58 39.3,12.92 58.6,21 9,-0.38 17.9,-1.08 27.3,-1.11 l 28.4,0.27 14.4,0.28 c 2.8,0.18 4.1,-0.16 5.6,-0.39 1.2,-0.37 3.6,-0.23 5.8,-0.16 l 26.1,0.78 -6.2,30.01 c 68.9,37.83 81.2,31.55 87.6,21.8 6.5,-9.96 7.2,-24.35 52.4,0.51 -34.7,-18.01 -30.6,-10.32 -41,-7.22 44.8,13.38 72.4,24.79 89.7,34.7 17.5,9.64 23.9,19.23 28.2,27.32 8.4,16.56 6.4,30.54 52.9,52.38 -14.7,0.69 -32.9,-4.52 -51.7,-11.79 -18.9,-7.05 -37.8,-17.13 -55.6,-23.36 -35.2,-13.39 -60.1,-19.99 -49.9,9.17 10.8,3.19 22,6.75 33.4,10.62 11.3,3.84 22.9,7.94 34.1,13.15 22.8,9.99 46,20.93 69.3,32.26 23.8,10.82 46,24.23 68.4,36.66 22.2,12.71 44.5,24.49 65.1,36.69 20.5,12.3 40.2,23.8 58.8,33.8 18.4,10.1 36.3,18 51.5,25.1 31,13.7 56.4,18.4 73.1,8.8 121.6,119.1 257.5,248.6 379.3,383 122.3,133.6 232.3,269.7 309.9,387 9.4,39.2 -21,-15 -21.8,2.9 23.3,17.9 46.1,47.5 66.7,81.9 19.8,34.8 38.9,73.6 54.5,110 30.6,73.3 53.9,134.5 70.9,126.6 7.9,26 9,46.6 6.5,63.5 -2.3,16.9 -6.6,29.3 -8,37.9 23.2,27.5 46.1,59.4 68.5,94.1 11.1,17.5 22.7,35.3 33,54.4 10.2,19 20.4,38.6 30.5,58.6 l -35.5,-55.8 -1.8,8.7 50.3,79.2 0.7,-4.1 c 12.3,25.1 24.6,50.7 36.8,76.8 6.3,13 11.7,26.4 17.2,39.9 5.5,13.5 11.1,27 16.6,40.6 11.2,27.1 22.4,54.5 33.5,81.9 l 16.9,41 c 5.5,13.7 10.4,27.6 15.6,41.4 20.7,55.1 42.3,109.3 64.6,161.3 20.5,52.5 42.3,102.6 66.1,148.8 -28.1,-53 -36.8,-42.6 -42.2,-25.5 -3.9,12.4 -6.2,28.2 -12.6,27.1 7.3,8.1 14.5,17.3 21.6,27.6 5,7.4 10.3,15.3 15,23.7 4.7,8.5 9.2,17.4 13.7,26.8 17.9,37.5 34.5,81.7 49.9,129.5 3.8,11.9 7.6,24.1 11.3,36.4 3.2,12.4 6.3,25.1 9.3,37.8 6.1,25.5 11.8,51.4 17.1,77.5 5.5,26 10.5,52.1 15.3,77.9 4.8,25.8 7.6,51.6 11.1,76.5 -12.5,1.2 -19.8,18.2 -33.3,-3.3 l 42.5,110.8 -17.1,-13 c 6.5,51.6 13.6,104.1 24.3,155.9 10.2,51.8 23.7,102.8 32.5,152.3 9.7,49.4 18.7,96.9 24.1,140.7 0.7,5.5 1.2,10.9 1.9,16.3 0.2,5.3 0.6,10.7 0.9,15.9 0.4,10.5 0.6,20.7 0.6,30.7 -0.2,19.9 -1.6,38.6 -4.5,56 -10.1,-85 -22.6,-84.7 -42.8,-92.2 3.7,74.3 7.3,146.5 11,221.7 1.1,37.7 2.7,76.2 5.1,116.2 1.2,20 2.5,40.4 4.2,61.2 1.4,20.9 1.9,42.2 3.2,64 -3.1,-9.5 -7,-15.7 -11.5,-16.1 -7.3,45.3 4.7,100.7 9.7,148 l -30.1,4.3 c 0.5,5.6 1,11.3 1.4,17.1 0,5.8 0.1,11.6 0,17.6 0,11.8 -0.5,24 -1.2,36.4 -1.4,24.9 -3.6,50.8 -5.6,77.3 -2,26.4 -3.4,53.5 -4.1,80.6 -1.5,27 -1.6,54.2 0.9,81.3 -9.5,9.2 -14.6,29.9 -17.2,57.7 -2.7,27.8 -2.3,62.7 -4.1,100.3 -0.6,18.8 -1.3,38.3 -1.9,57.9 -1.1,19.5 -2.6,39.2 -4.5,58.4 -3.3,38.4 -10.1,74.8 -20,104.4 -1.4,23.9 -4.4,-3.2 -10.2,-19.9 -5.9,-16.7 -14.7,-23 -27.7,41.7 29.5,16.2 19.6,58.5 10.7,99.8 -9.8,41.3 -19.3,81.5 12.9,96.1 -9,17.9 -19.4,35.6 -29,53.3 -9.8,17.6 -19.3,35.3 -29.5,52.7 l 24.6,35.7 c -23.5,19 -36.5,37.9 -44.2,58 -8.2,20 -10.8,41.3 -12.7,64.6 -1,11.7 -1.7,23.9 -3.1,36.7 -1.6,12.7 -3.7,26 -6.9,40 -6.3,27.9 -16.5,58.6 -37.8,91.4 -3.5,-10.6 1.3,-26.5 -6.6,-21.4 -7.3,24 -21.2,62.7 -28.4,85.8 -7.1,23.2 -5.1,31.7 23.3,-4.5 -9.5,18.5 -23.8,48.5 -39.6,81.2 -16.2,32.5 -35.6,67 -52,95.5 -35.2,56 -60.8,86.1 -42.2,22.4 3,4.5 8.2,1.2 14.7,-7.1 3.2,-4.1 6.8,-9.5 10.5,-15.7 3.7,-6.4 7.2,-13.7 10.9,-21.4 7.3,-15.6 14.8,-33.1 21.6,-49.7 3.3,-8.3 6.5,-16.4 9.5,-23.8 2.6,-7.6 5,-14.5 7.1,-20.5 -7.4,-2 -15.6,3.7 -24.9,13.4 -9.6,9.6 -20,23.2 -30.8,37.4 -10.9,14.1 -22.1,28.9 -33.5,40.6 -11.8,11.5 -23.5,20 -34.5,22.2 0.8,5 -3.5,21.4 -5.6,34 l -24.8,4.7 c -6.6,18.4 -15.5,35.7 -24.2,53 -8.9,17.1 -18.1,34.1 -28,50.5 -10.5,16 -21.2,31.7 -32,47.2 -10.9,15.3 -20.9,30.9 -32.6,45.1 -11.2,14.4 -22.2,28.7 -32.6,42.8 -10.6,14.4 -20.9,28.4 -30.8,42 -19.9,27.9 -37.8,54.9 -51.5,83 -11.5,-2.1 -36.1,12.5 -76,50 l 22.7,29.8 c -43.9,37.4 -89.6,72.6 -136.7,105.7 5.8,-15.1 11.2,-30.5 16.5,-45.6 5.4,-15.1 10.4,-30.2 15.2,-45.5 -75.8,52 -134.2,104.5 -192.2,155 -57.9,50.3 -115.9,98.2 -187.6,131.9 -30.3,-20.9 -98.3,11.7 -182.4,41.8 -42.2,14.4 -88,29.2 -133.1,35.9 -44.9,7.4 -88.7,7.2 -124.1,-3.4 40.7,-9.4 80.7,-20 119.6,-32.8 -63.6,13.8 -115.5,19 -160.3,19.7 -44.8,1.2 -82.5,-1.9 -119.5,-5.6 -74,-8.4 -144.6,-17.5 -267.9,-36.7 25.1,8.7 47.2,16.4 67.4,21.7 10.1,2.8 19.7,5.5 28.9,8 9.2,2.1 18,4.1 26.5,6.1 8.5,1.9 16.7,3.7 24.8,5.4 8,1.7 15.9,3 23.7,4.5 15.6,2.7 31,5.9 47.3,8.1 32.5,5.2 68.1,10.7 115.2,16.2 47.2,5.7 105.9,11.2 185,12.5 -78.5,5 -151.5,8.6 -222.3,9.4 -70.7,0.8 -139.4,-1.2 -207.2,-8.8 -17,-2.3 -33.9,-4.6 -50.7,-6.9 -16.9,-2.6 -33.7,-6.1 -50.4,-9.4 -16.9,-3.1 -33.4,-7.9 -50.2,-12.1 -16.9,-4.1 -32.9,-9.7 -49.2,-15.4 -32.3,-11.5 -65.4,-22.9 -96.4,-39.6 -15.6,-8 -31.3,-16.3 -47,-25 l -11.7,-6.6 -11.2,-7.5 c -7.5,-5.1 -14.9,-10.2 -22.5,-15.4 12.1,-2.1 34.8,3.5 48,2.9 6.6,-0.4 10.7,-2 9.6,-6.1 -0.6,-2.1 -2.5,-4.8 -6,-8.3 -3.4,-3.6 -8.3,-8.3 -15,-14 -15.7,0.8 -38.4,-6.9 -63.2,-18 -12.6,-5.2 -24.7,-12.6 -37,-19.8 -12.2,-7.5 -24.4,-15 -35.9,-22 -23.5,-13.9 -42.6,-28 -56.1,-34.2 -13.4,-6.3 -20.7,-5.5 -17.7,8.3 -15.8,-15.5 -27.4,-29 -35.6,-42 -7.9,-13.1 -13.3,-24.8 -17.9,-35.6 -4.7,-10.9 -8.6,-20.8 -13.6,-30.4 -5,-9.5 -11.4,-18.3 -19.8,-27.9 l -59.5,-38.5 c -10.1,-6.3 -19.5,-13.2 -29.1,-20 l -28.6,-20.6 -28.7,-20.8 -27.7,-21.7 c -18.3,-14.6 -37.2,-29 -55.1,-44 l 11.1,1.6 c -60.7,-103 -119.8,-195.6 -180.1,-284.3 -60.2,-88.7 -121.3,-173.6 -180.66,-259.1 -58.52,-85.1 -117.37,-170.8 -169.14,-262.6 -13.01,-23 -26.01,-46.1 -38.29,-69.7 -11.94,-23.7 -23.57,-47.8 -34.78,-72.3 -23.09,-48.6 -42.03,-99.9 -59.75,-152.6 l 21.79,0.2 -17.64,-22.6 -17.07,-23 -23.33,-31.3 c 32.84,39.4 -0.48,-60 12.19,-71.5 l -69.9,-124.8 c -22.19,-42.2 -44.94,-84.4 -66.89,-127 7.31,-5.8 21.7,-7.9 36,0 14.56,7.9 29.1,25.5 36.83,59.5 -3.91,-27 -11.95,-52.8 -21.3,-78 -9.26,-25.2 -20.64,-49.6 -32.59,-73.5 -6.1,-11.9 -12.2,-23.7 -18.21,-35.4 -5.69,-11.8 -11.38,-23.5 -16.99,-34.9 -10.89,-23.1 -20.81,-45.7 -27.96,-68 l 25.77,25.7 c -13.66,-28.7 -27.31,-57.5 -39.99,-86.6 l 24.22,-5.6 c -6.5,-18.3 -12.6,-37.4 -18.37,-56.8 -5.85,-19.4 -11.38,-39.1 -16.01,-59 -9.43,-39.7 -18.78,-79.1 -27.4,-115.4 -8.21,-36.5 -16.58,-69.7 -26.09,-96.9 -9.75,-27 -19.34,-48.2 -32.02,-60.2 l 42.59,9.8 c -21.13,-51.6 -42.75,-103.3 -62.26,-155.7 14.38,29.4 28.53,58.8 43.81,87.7 -1.79,-11.4 -3.74,-23.1 -5.94,-35.1 -1.95,-12.1 -4.06,-24.4 -6.34,-36.9 -4.46,-25 -9.59,-50.8 -15.11,-76.7 -10.49,-51.8 -21.46,-104.4 -32.19,-152.5 -10.16,-48.3 -19.26,-92.1 -26.5,-126.3 -6.5,-34.3 -11.13,-58.9 -12.11,-68.8 l 16.5,15 c 4.31,-30.9 -8.21,-53.5 -16.17,-84.5" /></g><g
         transform="scale(1.09927)"
         id="g50"><path
           id="path52"
           style="fill:#040606;fill-opacity:1;fill-rule:nonzero;stroke:none"
           d="m 10781.4,16300 c -3.3,-4.1 -7.3,-9.5 -12.2,-16.5 l 12.2,16.5" /></g><path
         id="path54"
         style="fill:#040606;fill-opacity:1;fill-rule:nonzero;stroke:none"
         d="m 12343.1,12514.4 c -3.8,10.5 -7.8,19.7 -11.8,27.9 -8.1,16.5 -16.7,29.1 -26,40.5 25.5,-39.2 41.3,-75.2 50.4,-102.9 -4.2,13.1 -8.8,24 -12.6,34.5" /><path
         id="path56"
         style="fill:#040606;fill-opacity:1;fill-rule:nonzero;stroke:none"
         d="m 12257.8,12636.4 c 8.7,-10.6 16.9,-19.7 24.6,-28.4 8.1,-8.4 15.7,-16.4 22.9,-25.2 -6.5,10.4 -14.1,20.8 -21.6,32.2 -7.4,11.4 -15.5,23.2 -24.2,35.4 -18,23.9 -36.4,50.7 -58.5,78 10.2,-21.5 20,-39.3 29.3,-54.4 9.2,-15.1 18.9,-26.9 27.5,-37.6" /><path
         id="path58"
         style="fill:#040606;fill-opacity:1;fill-rule:nonzero;stroke:none"
         d="m 13048.8,12101.9 c -6.9,0.7 -11,1 -11,1 3.8,-0.4 7.4,-0.7 11,-1" /><path
         id="path60"
         style="fill:#040606;fill-opacity:1;fill-rule:nonzero;stroke:none"
         d="m 13444.4,12066.6 c 8.7,3.2 18.7,5.9 29.5,8.5 10.8,2.8 22.4,5.5 34.3,8 -10.5,-1.2 -21,-2.9 -31.6,-5.7 -10.6,-2.8 -21.3,-5.9 -32.2,-10.8" /><path
         id="path62"
         style="fill:#040606;fill-opacity:1;fill-rule:nonzero;stroke:none"
         d="m 13508.2,12083.1 c 18.4,1.9 36.5,2.8 55.3,2.4 18.6,0.1 37.5,0 57.3,0.9 19.5,1.9 39.8,3.8 60.8,10.5 10.4,3.2 21.1,7.1 31.9,12 9.9,4.6 20.5,11.2 31.1,18.5 -10.8,1 -21.2,2.6 -31.8,4.1 -10.7,1.5 -22.2,3.5 -34.2,4.3 -12.2,0.9 -25.1,0.6 -40.3,-0.3 -15.1,-1 -31.7,-4.2 -51.5,-8.1 32.9,-17.1 -21.9,-31.6 -78.6,-44.3" /><path
         id="path64"
         style="fill:#040606;fill-opacity:1;fill-rule:nonzero;stroke:none"
         d="m 15729.8,14161 -1.1,5.7 c -5.9,-12 -11.4,-23.1 -16.9,-34.4 l 18,28.7" /><g
         transform="scale(1.22648)"
         id="g66"><path
           id="path68"
           style="fill:#040606;fill-opacity:1;fill-rule:nonzero;stroke:none"
           d="m 16289.9,11044.3 c 3.5,33.8 7.3,67.8 10.1,101.9 -5.5,-42.6 -22.6,-39.8 -10.1,-101.9" /></g><g
         transform="scale(1.22658)"
         id="g70"><path
           id="path72"
           style="fill:#040606;fill-opacity:1;fill-rule:nonzero;stroke:none"
           d="m 16298.6,11145.2 c 0.7,5.5 1.2,11.6 1.4,18.8 -0.4,-6.3 -0.9,-12.5 -1.4,-18.8" /></g><g
         transform="scale(1.22336)"
         id="g74"><path
           id="path76"
           style="fill:#040606;fill-opacity:1;fill-rule:nonzero;stroke:none"
           d="m 16282.3,11154 17.7,-5.8 -3.2,69.9 -14.5,-64.1" /></g><path
         id="path78"
         style="fill:#040606;fill-opacity:1;fill-rule:nonzero;stroke:none"
         d="m 15138.7,10442.6 -17.7,14.4 c 3.2,-39.7 10.7,-31.2 17.7,-14.4" /><path
         id="path80"
         style="fill:#040606;fill-opacity:1;fill-rule:nonzero;stroke:none"
         d="m 15278.8,11956.3 13,-29.2 c 2.8,5.3 5,11.1 7.6,16.7 -4,7.3 -10.5,12 -20.6,12.5" /><path
         id="path82"
         style="fill:#040606;fill-opacity:1;fill-rule:nonzero;stroke:none"
         d="m 15129.8,9938.9 c -4.8,-12.1 -7.8,-31.4 -6.3,-57 11.6,22.5 19.4,46.6 24.9,70.8 -7.2,3.2 -13.9,-1.7 -18.6,-13.8" /><path
         id="path84"
         style="fill:#040606;fill-opacity:1;fill-rule:nonzero;stroke:none"
         d="m 15416.2,12435.6 c -12.7,-14.6 -24.5,-40.5 -29.6,-73.8 11.3,26.1 19.4,49.4 29.6,73.8" /><g
         transform="scale(1.22332)"
         id="g86"><path
           id="path88"
           style="fill:#040606;fill-opacity:1;fill-rule:nonzero;stroke:none"
           d="m 16144.3,10035.9 c -5,-5.9 -9,-8.2 -12.5,-8.8 5.9,23.2 11.6,46.5 17.1,69.9 6.5,4.4 11.5,-0.8 12.7,-22.6 -5.1,-13 -11.6,-25.7 -17.3,-38.5 z m -234.3,-1094 c -16.8,-10.95 -37.4,-19.04 -59.8,-52.15 7.3,26.24 15.1,43.32 23.3,55.01 8.1,11.69 15.9,18.48 24.4,23.38 16.8,9.98 34.7,13.65 51.4,41.53 -8.9,-43.24 -22.6,-56.81 -39.3,-67.77 z m -123.4,-131.77 c 13.1,65.48 23.1,68.26 50.3,102.1 2.2,-16.84 -23,-68.1 -50.3,-102.1 z m -824,-882.52 c 2.3,10.38 -19.4,5.89 -45,-9.4 27.5,26.24 54.5,52.89 81.1,79.95 5.9,-12.18 -21.1,-34.25 -36.1,-70.55 z m -724.3,-667.2 c -16.5,-6.78 -34,-12.67 -49,-16.84 -29.9,-8.42 -49.3,-10.13 -30.2,1.06 48,28.04 31.6,31.72 11.4,33.77 -20.2,1.96 -44.3,2.29 -14.4,22.39 l -25.4,-12.59 -12.6,-6.21 -13,-5.64 c 4.6,3.68 9.1,6.79 13.2,9.65 4,2.94 7.8,5.47 11.3,7.6 7,4.33 13.2,7.03 18.7,8.66 11,3.36 19.4,2.29 27.4,0.33 15.8,-3.84 30,-11.69 58,5.48 -12.4,-7.93 -25.1,-14.96 -37.7,-22.48 -10.8,-18.48 6.3,-15.7 28.3,-10.14 5.4,1.47 11.2,3.03 16.9,4.5 5.5,1.72 11.1,3.27 16.2,4.41 10.2,2.37 18.8,2.94 22.8,-0.65 -10.6,-7.85 -25.3,-16.68 -41.9,-23.3 z m -192.4,-109.45 c -26.4,-1.23 -51,5.23 -72.4,6.53 -5.9,-0.32 -11.3,-0.89 -18.2,-0.49 5.7,0.82 12,0.9 18.2,0.49 18,0.99 32.5,4.91 44.9,9.98 12.5,4.98 23.1,10.87 33,16.76 20.2,11.36 39.6,18.96 74.3,8.74 -26.2,-29.83 -53.8,-40.05 -79.8,-42.01 z m -688.1,100.95 c 8.9,-1.8 18,-3.51 27.1,-5.07 1.1,-2.29 2,-4.5 3.1,-6.7 -10.2,3.51 -20.3,7.52 -30.2,11.77 z m -171.9,-45.7 c -8.9,5.81 -18.2,11.86 -27.4,17.91 -9.1,5.96 -17.7,12.83 -26.1,18.39 -16.7,11.45 -31.7,19.95 -43.1,21.74 -11.1,2.13 -18.6,-2.37 -20,-18.88 -3.5,10.46 -6.7,20.93 -9.8,31.31 l 20.3,-8.59 -35.7,28.78 -17.6,14.39 -16.6,15.53 c 7.1,-2.45 13.9,-5.23 20.5,-8.09 6.8,-2.46 13.2,-5.07 19.4,-7.85 12.5,-5.56 23.9,-11.86 34.5,-18.56 5.4,-3.35 10.3,-7.11 15.5,-10.3 5.1,-3.19 10.1,-6.54 14.9,-9.97 9.7,-6.79 18.7,-13.98 27.3,-21.25 16.9,-15.13 33.3,-28.04 48.3,-40.71 7.6,-6.22 15,-12.1 22.2,-17.41 3.6,-2.62 7.1,-5.24 10.6,-7.44 3.6,-2.05 7.2,-3.93 10.8,-5.64 -13.1,3.84 -29.8,15.2 -48,26.64 z m -576.8,781.57 c 9.9,8.74 13,24.28 12.2,43.24 -0.1,8.58 -1.1,17.98 -2.6,27.71 5.4,-22.15 11.1,-44.22 17.3,-66.13 -3.5,-10.54 -11.7,-13.57 -26.9,-4.82 z m -53.3,-233.47 c -7.6,30.66 -10.2,45.7 -21,65.81 -8.4,-19.87 -6,-87.22 -27.7,-45.86 1.2,9.16 -0.1,22.4 -2.3,37.19 -2,14.72 -4.3,31.31 -6.3,47 -4.1,31.23 -4.1,59.03 7.4,63.28 0.2,-23.71 5.6,-44.31 14.1,-61.8 8.3,-17.58 17.8,-32.46 26.9,-44.96 18.2,-25.18 29,-42.43 8.9,-60.66 z m -1.5,1031.21 c -0.4,-25.01 -0.7,-50.02 -0.7,-75.04 0,-7.84 0,-15.69 0,-23.54 -9.3,3.84 -19,2.86 -33.8,13.24 17,25.92 27.9,54.61 34.5,85.34 z m 281.4,1956.98 c 0.9,13 4.6,28 12.8,45.2 l -12.8,-45.2 c -2.7,-28.6 6.7,-50.4 7.1,-71.3 0.6,-21.1 -7.5,-41.3 -44.2,-68.3 12.4,46.4 23.8,93.3 37.1,139.6 z m 71.9,43.8 c 20.9,12.7 40.4,8.9 48.1,-1.7 49.4,62.7 18.3,60.1 30.5,100.1 l 19,-37.6 c -15.9,-23.5 -29.2,-41.1 -41.3,-55.2 -11.8,-14.4 -22.4,-25.2 -33.3,-35.1 -21.6,-19.8 -45.1,-35.4 -79.6,-68.1 12.9,55.5 35.9,84.8 56.6,97.6 z m 174.6,254.4 c -1.9,1.2 -3.9,2.1 -6,2.7 2.6,0.2 4.6,-0.7 6,-2.7 z m 149.4,419.4 c 5.7,14.1 14.9,31 25.4,47.9 20.8,33.9 47,67.8 62.3,79.2 -29.1,-48.6 -100.9,-177.3 -92.2,-158.6 -3.2,5.8 -1,17.2 4.5,31.5 z m 72.5,172.9 31.7,25.8 c -42.9,-93.4 -26.5,-41.6 -31.7,-25.8 l -38.1,-31.3 c 26.7,38.1 35,39 38.1,31.3 z m 571.7,544 c 9.7,4.4 19.6,9.2 29.6,14.3 -7.2,-7.8 -14.4,-15.7 -21.5,-23.6 -26.8,-29.7 -53.2,-59.9 -79.4,-90.3 2,7.2 7,16.7 13.8,26.9 17.6,26.9 46,59.6 57.5,72.7 z m 145.9,181.5 c 31.2,20.1 67.9,59.9 80.9,82.8 -10.4,0.6 -26.1,-8.6 -41.3,-19.7 -15.3,-11 -30.8,-23.1 -42.2,-27 18.2,42 81.2,75.2 126.5,100.2 22.7,12.6 40.6,23.9 46.4,35 6,10.8 -0.2,21.9 -27,33.6 18.4,6.2 56,23 86.3,32.1 30.8,8.7 53.4,10.8 41.3,-8.5 -10.2,-6.3 -21.7,-13.3 -33.3,-21.6 -11.5,-8.5 -23.7,-17.7 -36.1,-27.5 -25.3,-19.1 -50,-42.4 -74.3,-65 -23.9,-23 -46,-46.9 -64.8,-68.4 -18.4,-22.2 -33.6,-42.2 -43.3,-57.8 0.7,-6.7 -1.9,-15.4 -12.8,-27.4 0.7,6 5.9,16.1 12.8,27.4 -1.4,7.6 -8.8,12 -19.1,11.8 -11.6,-7.8 -22.9,-13.6 -31.4,-13.1 8.7,8.8 21.2,13.2 31.4,13.1 z m 375.9,291.2 c 14.2,8 30,15.1 46.5,21.7 8.4,3.3 17,6.4 25.6,9.4 9,2.5 18.2,5 27.3,7.3 18.6,4.5 37.1,9.3 56.4,12.6 4.5,0.7 8.9,1.4 13.4,2.2 -68.4,-30 -134.4,-66.1 -198.2,-107.1 -11.1,-2.8 -22.1,-5.6 -32.6,-8.7 11.7,25.3 33.9,45.3 61.6,62.6 z m 434.3,161.8 49.6,3.7 c -22.8,-7.4 -45.7,-13.1 -67.6,-22.6 z m 734.6,-166.9 c 67,-44 129.4,-96.5 184.8,-155.3 31.1,-32.7 59.9,-67.2 86.8,-102.8 -78,85.6 -166.6,161.4 -262.8,223.9 -0.5,0.5 -0.9,1 -1.4,1.5 -9.2,10.7 -18.3,21.9 -28.7,32.3 -10.3,10.7 -21.6,21.1 -35.3,29.8 -6.9,4.4 -14.1,8.7 -22.1,12.2 -8.1,3.5 -16.8,6.6 -26.2,9.1 5.6,-9 10.5,-18 15.8,-27.2 -26.1,13.7 -52.6,26.5 -79.5,38.2 -1.4,2.1 -4.4,5.2 -9.5,9.9 -7.2,6.6 -18.4,16.3 -35.6,28.8 74.2,-21.9 146.3,-56.9 213.7,-100.4 z m 160.6,-59.4 c 5.2,-17.6 9.3,-35.8 13.6,-53.4 -21.1,19.1 -42.8,37.5 -65.1,55.3 17.3,-0.1 34.1,-1.1 51.5,-1.9 z m 232.9,-272.3 c 13.4,-34.2 20.5,-64 32.2,-68.2 -4.6,18.4 -18,41.7 -27.5,62.6 -10,20.6 -16.2,39 -6.9,47.2 39.7,-28.2 59.3,-60 71.5,-91.5 6.5,-15.5 11,-31.2 15.8,-46.4 5,-15.2 9.8,-30.3 17,-44.9 -9.6,8 -18.9,16.1 -28.8,23.7 19,-47.3 24.4,-80.1 26.6,-104.5 1.1,-11.8 1.1,-21.6 0.8,-30.5 -9.4,18.8 -19.2,37.4 -29.3,55.8 1.7,-0.4 3.5,-1 5.4,-1.8 -25,45.9 -55.7,102.6 -83.6,154.2 -28,52.4 -53,101.1 -59.8,135 32.9,-18.2 53.5,-56.5 66.6,-90.7 z m 201.9,-409.5 c 1,-25.9 25.6,-72.5 43.2,-122.2 4.5,-12.4 9.2,-24.8 12.7,-37 3.2,-12.3 6.1,-24.4 8,-35.7 3.5,-22.9 4.1,-42.9 -3.2,-57.7 -4.9,20.5 -11.2,40.6 -16.8,60.9 l -8.5,30.3 -9.8,30 c 2.1,-10.9 4,-21.7 6,-32.4 1.8,-10.7 3.5,-21.3 5.2,-31.8 3.5,-20.9 7.8,-41 10.3,-60.6 1.4,-10.5 2.8,-20.7 4,-30.7 -18.3,86.3 -41.9,171.2 -71.5,253.9 2.7,11.6 6,26.9 20.4,33 z m 73.9,-411.6 c -3.1,20 -6.5,39.9 -10.1,59.8 3.3,5.2 5.8,11.9 5.8,22.9 0.2,-26.4 2.6,-55.1 4.3,-82.7 z m -3006.9,-174.2 c 43.6,51.4 35.3,15.8 47.4,18.9 -0.7,-1.1 -1.4,-2.3 -2.1,-3.4 -19.7,-18.3 -38.1,-28.9 -45.3,-15.5 z m -690.6,-3101.51 c -4,17.41 -4.8,29.84 -4,40.79 -5,43.73 -11.1,55.67 13.2,53.95 7.8,22.07 -8.9,55.1 -0.7,77.25 28.9,-82.07 -8.8,-80.68 -12.5,-131.2 1.3,-11.44 3.1,-24.36 4,-40.79 z m -119,-163.25 c -3.5,21.5 -7.3,43 -10.4,64.42 -4.1,12.42 -7,25.59 -5.6,40.79 l 5.6,-40.79 c 11.2,-31.96 32,-52.48 10.4,-64.42 z M 16270.2,10245 c -1.9,16.9 -3,34.4 -2.8,52.6 0.3,36.4 5.5,75.5 19.2,118.2 -0.7,77.5 -21.1,59.9 -35.6,49.4 -14.6,-10.6 -24,-14.7 -4.4,88 -7.7,-20.9 -15.2,-41.8 -22.8,-62.6 7.1,49.4 13.3,99 18.7,148.6 1.4,5.9 2.5,11.8 3.3,17.6 -0.7,-2.9 -1.6,-5.8 -2.3,-8.4 5.7,52.7 10.4,105.5 14.1,158.5 0.7,10.3 1.4,20.7 2,31.1 9.8,27.9 14.3,71 14.7,117.4 0.9,35.5 -1.7,72.7 -3.5,106.3 -1.5,17.7 -2.9,34.3 -4.3,49.2 -0.3,17.4 -0.7,34.8 -1.2,52.3 0.4,3.9 0.8,7.6 1.4,10.6 -0.7,1.4 -1.4,2.4 -1.9,3.1 -2.2,64 -6.5,127.9 -13.1,191.3 l 16.4,-5.9 c -20.2,40.1 -42.1,161.5 -24.4,186.3 9.2,-1.4 16.1,-10.6 21.5,-24.4 2.7,-6.9 5,-15 6.9,-23.9 2.1,-8.8 3.2,-18.5 4.5,-28.5 2.4,-20.1 3.9,-41.6 5.5,-61.5 0.9,-20 2,-38.4 4.1,-52.2 -1.7,30.7 -2.1,57.8 -3,82 -0.7,24.2 0,45.7 0.4,65.1 0.2,19.5 1,37.1 1.9,53.5 1,16.5 2.2,31.9 2.3,46.9 0.4,15 0.5,29.7 -0.1,44.9 -0.3,7.7 -0.8,15.4 -1.5,23.4 -0.8,7.9 -2.1,16 -3.7,24.5 -3,16.9 -7.4,35.1 -13.3,55.3 -6,20.2 -15.1,42.1 -25.9,66.8 l -1.4,-38 c -16.9,29.5 -28.4,60.5 -39.6,91.7 -5.3,15.7 -9.9,31.6 -14,47.6 -4.7,15.8 -9.1,31.7 -13.3,47.7 -4.3,15.8 -7.7,32 -12.3,47.6 -4.7,15.5 -9.4,30.9 -14.1,46.1 -9.1,30.6 -21.6,58.9 -35.6,84.8 22.8,-25.4 39.1,-24.9 37.7,-7.7 -36.7,55.2 -75.3,110.4 -115.5,163.3 -40.2,53.1 -82.5,104.9 -128.8,154.9 -46.3,49.9 -96.3,97.9 -152,142.4 -55.7,44.2 -117,84.9 -184.7,119.1 -19.6,26.6 -40.5,52.9 -62.8,78.7 l -18.4,-24.4 c -17.6,6.5 -31,12 -41.2,17 -10.2,4.9 -17.3,8.8 -22,12.7 -9.4,7.5 -9.5,13.7 -7.9,19.4 3,11.5 13.3,22.3 -34.1,38.5 35.7,-13.3 27.4,-15.4 31.7,-25.3 -19.2,11.9 -35.4,21.2 -49.2,27.7 -14,6.4 -25.2,10.6 -34.6,13.2 -18.8,5 -29.8,3.5 -38.4,0.8 -17.2,-5.5 -25.4,-16.7 -72.5,-0.8 9.9,-10 25.8,-19.4 43.6,-27.1 17.6,-8.1 36.9,-15.6 53.3,-22.9 16.2,-7.7 29.6,-14.7 35.4,-21.6 5.7,-7 4,-13.5 -9.5,-19.9 -36.7,21.9 -81.7,40.8 -129,55.6 -47.2,15.1 -96.9,25.1 -142.6,33.2 -45.7,8.6 -87.5,13.5 -120,21.9 -16.3,3.7 -30.3,8.2 -41.3,14.1 -11,6 -18.8,12.3 -23,21.1 -20.9,-4.3 -42.1,-8.3 -63.4,-12.2 -10.7,-1.6 -21.2,-4.9 -31.9,-7.3 -10.6,-2.5 -21.3,-5 -32.1,-7.6 -10.6,-2.6 -21.5,-4.7 -32.2,-7.7 -10.6,-3.1 -21.2,-6.2 -31.9,-9.3 -21.3,-6.4 -43.3,-11.5 -64.2,-19.3 -21.2,-7.2 -42.4,-14.4 -63.8,-21.6 -20.7,-8.2 -41.6,-16.4 -62.5,-24.6 -10.6,-3.8 -20.8,-8.4 -30.9,-13 l -30.5,-13.6 c -10.1,-4.5 -20.3,-9.1 -30.5,-13.6 -9.8,-5 -19.7,-9.9 -29.5,-14.8 -9.8,-4.9 -19.6,-9.8 -29.4,-14.7 l -14.7,-7.3 -14.2,-7.9 c -18.8,-10.5 -37.6,-20.9 -56.3,-31.3 -18.1,-11 -36,-21.9 -53.6,-32.6 -17.9,-10.7 -34.7,-22 -51.3,-33.3 -67.2,-44.2 -125.9,-90.4 -176.5,-133.6 -17.7,-34 23.3,7.9 19.9,-9 -26,-10 -54.3,-31.2 -81.1,-57.6 -13.2,-13.3 -26.4,-27.7 -39.1,-42.5 -12.9,-14.6 -24.5,-30.1 -35.9,-44.7 -45.5,-58.6 -79.2,-109.4 -93.6,-97.5 -24.9,-43.9 -17.5,-77.3 -18.7,-93.9 -55.7,-37.2 -112.7,-91.2 -167.9,-152.9 l 45.8,40.7 -0.1,-8.3 -65,-57.8 0.2,3.9 c -67,-78.1 -134.1,-166.6 -198.5,-254.2 -33.1,-43.2 -64.4,-86.9 -97.2,-127.5 -16.3,-20.3 -32,-40.6 -48.4,-59.7 -16.1,-19.2 -33.1,-37.4 -49.2,-55 38.5,39.9 44.9,27.8 46.1,10.8 0.9,-12.4 -0.7,-27.5 6,-28 -46.7,-28.1 -97.3,-85.9 -144.3,-157.4 -6.3,-9.6 -12.8,-19.5 -19.1,-29.5 -6,-10.2 -12.2,-20.5 -18.3,-30.9 -12.1,-20.9 -24,-42.4 -35.7,-63.9 -22.7,-43.5 -43.8,-87.9 -63.1,-130.1 11.6,-4.8 14.4,-22.1 32.7,-6.9 l -68.3,-86.1 19.7,6.5 c -9.3,-22.2 -19,-44.4 -29.6,-66.3 -10.6,-21.8 -22.1,-43.4 -34,-64.7 -22.7,-43 -47.9,-84.7 -70.5,-125.3 -11.3,-20.3 -22.3,-40.3 -32.5,-59.8 -10.4,-19.5 -19.9,-38.5 -27.8,-57.3 -15.9,-37.3 -28.2,-72.3 -32.1,-104.7 33.5,71.5 45.8,67.3 67.2,67.7 -49.3,-128 -91.7,-249.8 -153.5,-399.2 6.1,7.2 11.7,11.4 16.1,10.4 -3.6,-20.8 -12,-42.5 -21.9,-63.9 -9.9,-21.4 -21.4,-42.6 -30.5,-62.5 l 27.4,-13.2 c -16.7,-37.95 -27.8,-83.61 -40.1,-130.93 -5.8,-23.75 -12,-47.9 -19.5,-71.75 -3.8,-11.93 -8,-23.78 -12.5,-35.52 -4.3,-11.69 -9.1,-23.3 -14.4,-34.66 12.6,-22.16 -7.5,-78.23 -28.8,-144.04 -5.4,-16.43 -11,-33.43 -16.7,-50.6 -5.5,-17.16 -10.2,-34.58 -14.7,-51.66 -8.6,-34.25 -15.8,-67.28 -15.7,-95.89 -12.8,-41.77 46.4,88.45 28.9,-31.14 -33.2,-4.25 -39.2,-43.32 -44.6,-81.34 -5.1,-38.17 -10.8,-75.28 -46.2,-76.51 4.3,-36.29 10.6,-72.59 15.9,-108.64 l -36.9,-20.76 c 29,-47.82 20.4,-81.5 4.8,-120.99 -7.9,-19.69 -16.5,-40.78 -22.4,-65.63 -5.8,-24.77 -9,-53.22 -4.8,-87.31 7.5,7.03 10.6,21.5 15.4,14.39 -8.3,-43.49 -13.8,-144.94 -30.8,-66.13 0,-18.15 -1.7,-47.17 -2.6,-78.97 -0.2,-15.86 -0.5,-32.45 -0.9,-48.56 0,-16.26 0.2,-32.12 0.6,-46.51 2.1,-57.79 8.8,-92.04 25.3,-35.31 -20.1,-8.67 -5.4,94.33 2.2,137.9 15,-2.86 19.6,-31.39 24.8,-62.61 5.3,-31.23 11.3,-65.07 28.2,-78.15 -3.2,-3.6 -7.8,-18.07 -12.4,-28.69 l 19.2,-14.8 c -13.7,-68.75 -10.8,-138.56 -7.3,-203.96 3.6,-65.55 7.6,-126.62 -4,-181.71 10.3,-4.33 21.4,-27.55 29.7,-76.11 l -36.3,-10.05 c 5.5,-25.26 12,-50.44 18.2,-75.7 7.2,-25.17 13.4,-50.44 21.5,-75.53 10,28.77 21.9,56.98 33.1,84.52 26.3,-79.37 36.6,-150.98 48,-221.44 2.4,-17.66 6.1,-35.07 9.6,-52.57 3.5,-17.49 7.2,-34.9 11.2,-52.31 3.4,-17.17 10,-35.4 16.7,-53.46 6.8,-17.99 14.1,-36.05 22.9,-53.87 18.9,-0.58 37.2,-17.41 56.2,-43.57 4.8,-6.54 9.4,-13.82 14.5,-21.26 5.4,-7.27 10.9,-15.04 16.5,-23.13 11.3,-16.27 22.6,-34.33 35.3,-52.32 13.3,-17.49 27.3,-35.55 41.8,-53.3 l 11,-13.24 11.9,-12.26 c 8,-8.01 16.2,-15.86 24.5,-23.38 8.2,-7.52 16.6,-14.71 24.9,-21.41 8.3,-6.79 17.6,-12.1 26.3,-17.42 17.7,-10.38 35.4,-18.39 52.6,-23.21 -27.8,29.67 -56,57.96 -80.1,90.08 11.1,-11.28 21.4,-22.31 32.1,-31.72 10.9,-9.32 21.3,-17.98 31.3,-26.07 10.1,-8.1 19.7,-15.7 29,-22.89 9.6,-6.79 19.2,-12.67 28.2,-18.47 18.3,-11.37 35.1,-22 51.8,-30.74 16.9,-8.42 33.1,-16.11 49.1,-23.71 8,-3.76 16,-7.52 24,-11.28 8.3,-3.35 16.6,-6.7 25,-10.13 16.8,-6.95 34.1,-14.39 52.5,-22.73 19,-7.19 39.1,-15.29 61.2,-24.69 5.5,-2.37 11.1,-4.82 16.9,-7.35 5.9,-2.13 11.9,-4.42 18.2,-6.71 12.4,-4.74 25.4,-9.73 39.2,-15.04 -24.6,4.58 -46.4,8.34 -65.7,13.08 -19.2,5.31 -36.2,10.22 -52.1,14.96 -7.9,2.37 -15.6,4.66 -23.1,6.95 -7.4,2.45 -14.4,5.31 -21.5,7.93 -14.3,5.31 -28.2,10.54 -43,15.94 -57.8,24.36 -129.7,46.75 -262.7,126.54 15.7,-11.12 31.2,-21.99 46.4,-32.78 15.2,-10.71 29.5,-21.91 44.8,-31.31 30.2,-19.45 58.3,-40.05 88,-56.89 14.6,-8.91 29,-17.74 43.2,-26.49 14.5,-8.5 29.4,-15.94 43.9,-23.87 14.5,-7.76 28.9,-15.86 43.5,-23.13 14.9,-6.79 29.8,-13.49 44.6,-20.19 l 22.3,-9.89 c 7.4,-3.36 14.9,-6.54 22.6,-9.16 15.2,-5.48 30.6,-10.79 46.1,-16.02 30.5,-11.2 62.7,-17.82 95,-24.85 8,-1.56 16.2,-3.19 24.3,-4.83 8.3,-0.98 16.6,-1.96 24.9,-2.94 16.6,-1.8 33.5,-3.27 50.5,-4.33 16.9,-1.63 34.1,-0.65 51.5,-0.08 17.4,0.74 34.9,1.88 52.5,3.51 -9.4,7.77 -31.3,14.8 -42.3,21.58 -11,6.71 -10.7,12.92 22.8,19.13 6.5,-4.25 15.5,-7.76 26.2,-10.22 10.6,-1.96 22.9,-3.1 36,-3.59 26.3,-0.98 55.9,-0.58 82.2,3.1 26.1,2.86 50,5.4 64.1,4.58 1.3,-0.16 2.6,-0.32 3.7,-0.57 1.3,-0.17 2.7,-0.41 3.8,-0.65 2.3,-0.58 4,-1.48 5,-2.7 2.1,-2.37 1.6,-6.13 -2.3,-11.69 37.8,13.73 58.2,30 74.6,44.47 16.4,14.55 29.3,26.89 50.9,35.47 l 64.4,4.58 c 10.8,0.82 21.7,1.48 32.5,2.54 l 32,4 c 42.9,5.56 86.4,10.47 128.9,19.13 l -9.9,4.25 c 23.5,14.71 47.1,28.29 70.5,41.36 22.9,13.98 45.8,27.14 68.8,39.65 11.5,6.13 22.9,12.18 34.3,18.31 11.3,6.38 22.5,12.59 33.8,18.64 22.4,12.18 45.2,23.54 67.7,34.9 22.2,12.02 44.5,23.46 66.9,34.66 11.3,5.56 22.5,11.04 33.7,16.6 l 33,17.25 c 22.2,11.36 44.4,22.48 66.8,33.51 l 65.6,34.91 33.1,17.32 32.4,18.32 c 21.6,12.42 43.3,24.77 64.9,37.19 21.4,12.83 42.2,26.41 63.3,39.89 21.1,13.57 42.2,27.3 62.4,42.26 20.3,14.8 40.6,29.84 60.6,45.37 20,15.62 39.1,32.46 58.3,49.3 38.8,33.59 74.3,71.19 109.1,110.6 l -19.8,8.74 c 27.1,14.47 53.6,29.76 80.4,44.96 -45.2,-22.64 21,52.15 12.7,67.93 l 53.3,40.96 c 8.8,6.86 18,13.56 26.5,20.68 l 25.9,21.25 103.9,85.67 c -9.6,15.86 -50.3,29.92 -86.8,-23.79 25,44.63 63.1,78.56 99.6,112.4 37.2,33.27 75.7,63.85 103.9,97.36 l -32.5,-12.59 c 11,10.06 22.5,19.7 33.1,30.08 l 31.8,31.15 -20.6,14.14 c 23.8,27.47 47.1,58.2 69.4,89.02 5.5,7.77 11.1,15.45 16.6,23.13 5.4,7.77 10.3,15.7 15.5,23.47 10.2,15.53 20.2,30.65 29.7,45.2 38.9,58.04 74.5,104.22 104.6,116.81 l -42.8,6.87 107.3,114.6 -69.1,-61.14 c 10.3,18.88 21.9,38.66 34.4,58.86 6.3,10.05 12.6,20.27 19.1,30.57 6.4,10.3 12.5,21.01 18.9,31.55 25.6,42.26 52.5,84.45 77.8,122.95 12.9,19.04 23.6,38.17 34.4,55.34 10.5,17.25 20.3,33.1 28.9,47 17,27.79 29.2,47.9 33.3,56.16 l -20.4,-7.36 c 2.9,14.23 9,25.26 16.7,35.81 7.6,10.46 16,20.84 24.3,33.19 l -29.6,-11.12 c 28.1,58.36 48.2,107.49 64.5,152.21 2.1,5.64 4,11.11 6,16.59 1.7,5.56 3.4,11.04 5,16.51 3.3,10.87 6.4,21.5 9.5,32.05 6.1,21.09 12,41.69 17.9,62.45 6,20.77 12.1,41.69 19.1,63.35 7,21.58 13.1,44.64 21.2,68.83 8,24.28 17.2,50.03 28.1,77.99 5.4,13.97 11.3,28.45 17.6,43.56 6.1,15.29 12.4,31.23 19,47.99 18.2,76.51 -19.9,-39.24 -32.1,-36.37 -4.1,46.26 41.7,136.59 57.7,154.75 -40.2,-11.95 -65.7,-129.5 -65.4,-34.26 35.6,56.63 -43.9,-32.46 -3.8,73.59 18.8,9.93 36.6,20.3 54.9,30.65 8.8,63.38 -30.5,21.56 -0.6,116.81 24,52.7 27.5,16.1 31.5,-12.19 3.9,-28.17 8.6,-47.82 35.4,41.19 8.8,45.8 -5.9,99.5 -15.2,161.9 -2.5,15.6 -3.8,31.6 -5.8,48.6" /></g><g
         transform="scale(1.14079)"
         id="g90"><path
           id="path92"
           style="fill:#040606;fill-opacity:1;fill-rule:nonzero;stroke:none"
           d="m 16284.6,8388.61 c 4.2,2.1 9.2,4.99 15.4,8.76 -5.2,-2.89 -10.3,-5.78 -15.4,-8.76" /></g><g
         transform="scale(1.01854)"
         id="g94"><path
           id="path96"
           style="fill:#040606;fill-opacity:1;fill-rule:nonzero;stroke:none"
           d="m 16277.2,14402.4 -0.2,-5.4 c 8.1,9 15.5,17.4 23,25.9 l -22.8,-20.5" /></g><path
         id="path98"
         style="fill:#040606;fill-opacity:1;fill-rule:nonzero;stroke:none"
         d="m 15920.6,7719.6 c 10.1,-29.1 24.8,-58 69.8,-124 l -29.2,61.6 -30.4,60.9 -30.4,61 c -2.9,5.9 -6,11.6 -8.9,17.5 5,-11 9,-20.7 12.4,-29.4 7.2,-18.6 11.5,-33 16.7,-47.6" /><path
         id="path100"
         style="fill:#040606;fill-opacity:1;fill-rule:nonzero;stroke:none"
         d="m 15869.3,7839.9 c 7.7,-14.3 14.9,-28.8 22.2,-43.3 -5.7,12.5 -12.8,26.7 -22.2,43.3" /><path
         id="path102"
         style="fill:#040606;fill-opacity:1;fill-rule:nonzero;stroke:none"
         d="m 15790.7,7862.7 c 19,-44.8 38.4,-89.2 56.2,-134.5 l 25.6,-1.3 c -13.5,22.7 -26.5,45.7 -40.3,68.2 l -41.5,67.6" /><path
         id="path104"
         style="fill:#040606;fill-opacity:1;fill-rule:nonzero;stroke:none"
         d="m 5840.07,3096.6 -30.52,14.4 c 44.62,-62.5 41.9,-45 30.52,-14.4" /><path
         id="path106"
         style="fill:#040606;fill-opacity:1;fill-rule:nonzero;stroke:none"
         d="m 5459.81,5908.9 6.55,-51.7 c 4.17,10.1 7.86,21.1 11.92,31.6 -2.38,12.9 -8.07,20.5 -18.47,20.1" /><path
         id="path108"
         style="fill:#040606;fill-opacity:1;fill-rule:nonzero;stroke:none"
         d="m 6460.09,2372.7 c 6.65,-8.8 16.32,-19.4 29.01,-31.7 6.34,-6.2 13.44,-12.7 21.3,-19.6 7.92,-6.9 16.91,-13.7 26.51,-21 -5.71,8.4 -11.8,16.7 -18.21,25 -6.23,8.5 -12.7,17 -19.46,25.5 -13.51,16.9 -28.04,33.5 -43.11,49.9 -10.61,-0.6 -9.35,-10.6 3.96,-28.1" /><path
         id="path110"
         style="fill:#040606;fill-opacity:1;fill-rule:nonzero;stroke:none"
         d="m 5701.33,6654.6 c 11,23.8 21.01,46.3 30.76,68.4 9.96,22 20.22,43.3 30.65,65.4 -9.78,-13.7 -20.72,-32.2 -31.65,-54.6 -10.48,-22.6 -20.7,-49.4 -29.76,-79.2" /><g
         transform="scale(1.03821)"
         id="g112"><path
           id="path114"
           style="fill:#040606;fill-opacity:1;fill-rule:nonzero;stroke:none"
           d="m 15686.4,2791.73 c -19,-20.32 -35.7,-33.32 -53.3,-44.69 -35.9,-22.25 -72.6,-41.13 -139.4,-103.25 18.5,24.56 34.7,44.78 49.3,61.74 14.2,17.24 26.6,31.3 38.1,42.76 11.3,11.56 21.7,20.52 31.3,28.03 9.3,7.71 18,13.68 26.5,18.98 16.9,10.69 32.9,18.39 50.8,30.43 17.6,12.24 36.8,29.19 60.7,57.79 -24.6,-42.76 -44.6,-71.75 -64,-91.79 z m -376,-289.24 c 24.6,27.45 42.4,49.79 58.4,67.13 15.9,17.34 29.2,30.43 41.5,42.47 24.7,23.9 49,39.88 85.4,72.24 -11.7,-31.59 -103.5,-125.31 -185.3,-181.84 z m -2432.7,-69.07 c -16.4,4.53 -37.2,11.18 -60.5,18.02 -20.4,6.06 -43.1,12.04 -66.7,16.27 15.8,-0.96 1.1,15.32 -31.1,37.47 -10.9,7.61 -24,15.9 -38.3,24.37 77.8,-34.29 155.6,-67.62 233.5,-99.3 -5.2,-4.15 -18.3,-1.93 -36.9,3.17 z M 10833,2944.4 c -15.5,-0.19 -32.1,0.09 -48.9,0.77 -17,0.58 -34.1,1.64 -50.8,2.89 -16.6,1.15 -32.7,1.25 -47.4,2.21 -58.7,3.38 -95.2,9.73 -53.1,13.88 106.2,10.69 81,21.76 45.4,32.36 -35.3,10.69 -81.1,21.19 -9.6,30.73 l -57.2,-3.18 -57.1,-5.97 c 22.9,5.77 42.2,10.11 58.8,12.32 16.6,1.83 30.2,2.22 41.9,1.83 23.3,-0.96 38.3,-5.68 51.4,-11.17 6.6,-2.89 12.7,-5.59 19.3,-8.48 6.4,-2.98 13.3,-6.06 21.4,-8.47 16.1,-4.91 36.9,-8 69.2,-6.36 l -86.4,-4.14 c -16.9,-7.52 -17.1,-12.81 -7.8,-16.09 9.5,-3.47 28.3,-6.55 49.9,-9.15 21.5,-2.6 45.5,-5.1 65,-8.47 19.6,-4.05 34.7,-9.25 38.3,-15.32 -12.5,-0.77 -26.8,-0.19 -42.3,-0.19 z m -380.1,-55.77 c -26.9,-5.39 -52,-5.3 -75.8,-5.87 -47.5,-0.2 -90.1,9.91 -129.4,10.01 -11.1,-0.67 -21.2,-1.54 -34,-1.35 10.9,1.25 22.7,1.54 34,1.35 33.9,2.31 61.8,5.97 86.5,11.37 24.9,5.3 46.6,12.81 67.8,17.63 21.1,4.71 41.9,8.47 64.2,8.66 11.2,0.2 22.8,-0.67 35.1,-2.6 12.3,-2.41 25.3,-6.35 39.1,-11.75 -31.7,-12.81 -60.5,-22.44 -87.5,-27.45 z M 9017.73,2630.78 c 18.56,8.48 37.14,16.96 55.74,25.43 l 11.76,-2.5 c -22.36,-7.81 -44.88,-15.41 -67.5,-22.93 z m -244.66,-230.97 c -41,-11.95 -85.12,-24.76 -124.06,-37.18 -39.07,-12.33 -72.54,-24.66 -91.62,-36.89 -19.23,-11.95 -24.12,-23.7 -5.3,-35.35 l -54.31,6.84 40.65,19.45 -89.66,-26.39 -90.33,-24.46 c 27.13,14.93 53.71,27.83 79.76,39.29 25.76,11.85 50.99,22.26 75.67,31.21 49.46,17.92 95.72,32.37 139.84,43.06 43.64,11.36 84.57,19.94 121.95,28.31 37.17,8.48 70.9,16.57 100.39,26.59 -25.04,-10.4 -62.34,-22.15 -102.98,-34.48 z M 7005,2035.72 c -22.19,6.55 -42.34,11.56 -66.84,16.08 14.87,-12.71 54.14,-34.19 78,-49.21 23.99,-14.35 31.66,-24.66 -19.29,-16.86 -16.2,9.24 -42.65,20.13 -73,31.69 -30.19,12.14 -63.79,26.58 -95.34,39.88 -31.03,14.73 -59.67,29.37 -80.09,41.89 -20.25,12.91 -31.93,24.37 -29.99,31.5 10.96,-6.55 21.75,-12.91 32.77,-18.21 11.06,-5.2 22.05,-9.91 32.93,-14.25 21.83,-8.38 42.77,-16.37 63.62,-21.09 41.53,-10.02 79.29,-16.48 112.51,-19.46 65.87,-8.09 110.97,-9.92 124.61,-44.5 -32.97,9.34 -57.55,16.28 -79.89,22.54 z m -422.3,346.56 c 45.01,-24.37 90.95,-47.01 137.73,-67.62 7.02,-7.03 10.26,-12.81 8.65,-17.24 -1.97,-5.3 -10.55,-8.76 -27.26,-9.54 -8.5,26.68 -58.5,58.18 -119.12,94.4 z m -247.32,-119.25 -30.24,20.23 -29.38,21.29 c -25.16,14.74 -50.51,31.11 -73.57,54.99 23.72,-19.26 48.72,-37.08 73.57,-54.99 31.98,-19.27 62.99,-30.92 84.99,-42.67 22.03,-11.66 35.67,-22.93 35.6,-38.63 -20.84,12.62 -40.65,26.59 -60.97,39.78 z m -160.83,337.31 c -18.21,16.19 -33.15,29.38 -45.22,40.07 -11.92,10.89 -20.38,19.75 -26.1,26.68 -11.32,13.97 -10.51,21.1 2.83,27.74 -6.41,10.22 -15.3,20.42 -25.4,30.73 -9.75,10.59 -20.73,21.29 -31.73,32.07 -10.96,10.7 -22.1,21.39 -31.72,32.18 -9.4,10.98 -17.58,21.86 -23.29,32.55 35.43,-30.92 61.18,-53.36 79.05,-73.39 17.75,-20.04 29.7,-35.54 38.51,-50.86 8.97,-15.12 15.34,-29.57 24.1,-45.27 9.08,-15.32 20.47,-32.17 38.97,-52.5 18.58,-17.33 41.1,-35.25 67.9,-59.71 -31.41,23.69 -52.04,41.7 -67.9,59.71 z m -583.41,781.83 c -2.38,18.79 -5.65,37.66 -9.74,56.83 -3.99,19.07 -7.98,38.82 -13.12,58.47 -6.46,23.69 -13.05,48.16 -20.27,72.91 27.85,-66.65 58.48,-132.25 91.76,-196.39 -0.87,0.19 -1.73,0.28 -2.58,0.38 -12.41,1.45 -21.79,-4.33 -46.05,7.8 z m 501.26,4142.14 35.94,69.83 c 23.93,46.52 47.86,93.14 73.09,138.99 10.16,25.33 25.4,55.09 48.36,89.67 l -48.36,-89.67 c -23.46,-56.16 -25.37,-97.48 -38.79,-138.61 -13.35,-41.22 -38.66,-81.77 -104.8,-140.72 z m 206.97,276.72 c 11.12,11.18 21.55,20.04 31.06,26.88 38.13,27.35 62.31,22.63 65.5,3.27 28.15,32.27 46.4,55.77 58.69,74.26 12.52,18.3 19.13,31.5 23.49,43.25 8.78,23.5 8.99,40.84 32.11,80.04 l -0.83,-69.54 c -19.62,-23.79 -37.54,-44.4 -53.4,-63.09 -15.81,-18.69 -30.13,-35.06 -43.45,-49.79 -26.6,-29.29 -49.19,-51.63 -71.36,-72.24 -21.75,-20.81 -43.19,-39.79 -67.98,-62.04 -12.33,-11.17 -25.51,-23.11 -40.16,-36.4 -14.66,-13.3 -30.34,-28.23 -47.45,-45.56 13.4,27.83 27.32,52.01 40.62,73.58 13.3,21.48 26.14,40.27 38.37,56.35 12.23,16.18 23.87,29.77 34.79,41.03 z m 462.2,538.53 c -1.71,2.02 -3.85,3.27 -6.21,4.14 3.62,0.67 5.78,-0.58 6.21,-4.14 z m 514.92,579.07 c -1.89,-2.21 -3.79,-4.33 -5.7,-6.55 -44.18,-36.6 -79.54,-59.23 -79.85,-35.92 105.53,100.94 65.34,34.96 85.55,42.47 z m -0.55,158.54 c -0.28,19.75 50.1,82.84 108.3,147.18 59.33,63.28 126.18,127.91 158.97,150.64 -21.18,-22.44 -49.75,-54.9 -81.15,-89.57 -31.32,-34.77 -65.26,-71.95 -94.73,-106.15 -59.53,-67.71 -105.2,-119.72 -91.39,-102.1 z m 280.95,375.75 69.86,50.57 c -141.67,-171.16 -74.58,-77.45 -69.86,-50.57 l -83.75,-61.26 c 71.64,71.18 85.33,74.16 83.75,61.26 z m 1225.9,876.98 c 53.82,45 130.41,101.4 162.42,122.5 20.42,7.9 41.5,16.7 62.87,25.8 -90.64,-61.4 -181.13,-125.8 -271.26,-193.1 9.71,11.9 26.18,27.6 45.97,44.8 z m 578.26,416.1 c 36.65,16.3 79.28,40.9 120.17,63.9 40.11,24 77.91,45.6 99.9,63 -18.16,0.4 -55.29,-13.1 -93.04,-30 -18.85,-8.6 -38.06,-17.5 -55.58,-25.1 -17.35,-7.7 -32.51,-14.5 -44.35,-17.8 8.6,7.9 18.31,15.8 28.92,23.5 10.71,7.8 22.8,15 35.33,22.2 12.59,7.2 25.86,14.4 39.6,21.3 13.86,6.6 28.36,12.9 42.99,19.1 14.7,6 29.48,12.3 44.54,17.8 15.15,5.3 30.27,10.5 45.18,15.7 29.71,10.5 59.28,18.7 86.15,27 26.78,8.6 51.73,15.2 72.24,22.4 20.52,7.1 36.99,14.1 47.97,20.8 21.67,13.7 20.8,29 -17.72,47.6 40.07,6.5 126.85,23.7 193.55,28.4 16.6,1.3 31.8,2.4 44.8,2.6 13,-0.1 23.6,-0.7 30.9,-2.1 14.3,-2.9 15.1,-8.8 -6,-19.3 -25.8,-4.9 -53.9,-13 -84.29,-20.8 -30.25,-8.1 -62.03,-18.8 -95.17,-29.1 -65.49,-23 -135.23,-49.5 -201.01,-80.9 -33.33,-14.8 -65.08,-32 -96.01,-47.8 -30.57,-16.5 -59.62,-33.3 -86.59,-49.4 -26.56,-16.8 -51.5,-32.4 -73.13,-47.6 -21.51,-15.3 -40.44,-29.2 -56.06,-41.5 -4.73,-10.1 -17.11,-23.1 -47.42,-41.7 6.71,9 25.12,24.3 47.42,41.7 4.35,11.5 -4.9,17.3 -23.29,16.1 -27.71,-12.5 -53.04,-21.7 -67.61,-21.8 23.45,13.9 49.47,21.2 67.61,21.8 z m 1210.45,353.6 c 50.8,-2.7 102.7,-8.4 154.2,-15.5 -165.3,0.8 -330.7,-14.4 -493.7,-45.4 -24.6,-0.4 -48.7,-1 -72.1,-2 94.6,55.8 248.4,73.4 411.6,62.9 z m 774.5,-59.6 c 17.3,-4.5 34.4,-10 51.6,-15 17.2,-5.2 34.4,-9.9 51.4,-15.7 -50.5,9.3 -100.9,17.6 -151.6,23.9 z m 1448.3,-794.6 c 136.5,-107.2 269.5,-222.5 398,-342.38 69.8,-65.59 138,-132.73 204.9,-200.73 -188.8,173.28 -381.9,336.71 -577.3,487.81 -62.8,65.9 -123.1,137.2 -233.6,198.1 12.1,-16.6 22.9,-32.6 35.1,-49.5 -52.8,38.2 -105.8,75.5 -158.9,111.8 -7.9,10.1 -34.2,36 -89.1,86.8 142.9,-87.1 283.7,-185.4 420.9,-291.9 z m 309.4,-179 48,-90.56 -69.2,60.06 c -23.1,20.2 -46.9,39.4 -70.3,59.1 30.5,-9.5 61.2,-18.7 91.5,-28.6 z m 471,-436.64 c 14.2,-14.93 28.1,-30.34 40.9,-46.04 12.8,-15.8 24.9,-31.69 36.5,-47 22.9,-30.63 43.1,-59.05 60.4,-81.01 17.2,-21.96 30.9,-37.85 41.7,-42.38 -21.5,32.75 -60.2,75.23 -90.8,112.69 -30.6,37.57 -53.2,70.13 -44.2,81.49 41.1,-28.32 74.6,-56.73 103.5,-84.76 14.3,-13.97 27.6,-27.84 39.9,-41.8 12.2,-14.06 23.4,-27.94 34.1,-41.81 42.9,-55.28 77.3,-108.45 122.6,-160.75 l -62.5,43.92 c 99.3,-124.74 136,-191.2 159.9,-240.7 -31.1,33.9 -62.5,67.61 -94,101.13 3,-0.87 6.4,-2.02 10.1,-3.66 -39.6,41.03 -82.4,88.33 -126.7,136.49 -22.3,24.08 -44.5,48.64 -66.6,73.3 -21.8,24.75 -43.7,49.41 -65,73.39 -84.5,96.99 -159.3,186.28 -191.6,245.04 32.6,-20.32 63.3,-47.78 91.8,-77.54 z m 735.5,-826.71 c 14.5,-23.02 40.7,-55.48 73.2,-92.56 16.5,-18.4 34.2,-38.24 52.5,-58.76 18.5,-20.42 37,-42.09 55.7,-63.67 75,-85.92 144.6,-177.42 160.3,-235.59 -57.3,71.95 -114,144.28 -172.9,214.79 55.8,-78.69 110.3,-155.17 160.4,-225.58 13.9,-20.23 27.3,-39.97 40.3,-59.24 -115.6,154.4 -236.6,306.87 -362.2,456.46 -8.4,21.96 -20.5,51.24 -7.3,64.15 z m 532,-744.07 c -25.8,36.5 -51.9,72.91 -78.3,109.23 -1.8,11.07 -6.4,24.65 -18.6,44.98 29.5,-49.42 64.2,-102.68 96.9,-154.21 z m 1247.7,-2845.29 3.2,-91.6 c -1.9,-16.76 -5.2,-24.08 -8.8,-27.35 -5.6,52.3 -12.4,104.6 -20.1,156.81 4.6,14.54 12.8,7.7 25.7,-37.86 z m 200.4,-741.95 c -3,-23.21 -6.7,-52.01 -10.5,-74.93 -3.9,-23.02 -9.6,-40.17 -13.1,-40.56 -1.5,12.24 -1.1,26.3 -1.9,41.71 -0.4,15.51 -0.2,32.37 0.4,49.99 1.3,35.16 4.6,73.59 8.7,110.57 5.6,73.79 13.4,142.08 19.6,166.54 -20.7,-25.71 -28.7,-105.56 -35.3,-153.24 -4.1,-23.89 -8.2,-39.78 -12,-36.89 -4.4,2.89 -7,24.56 -15.4,75.32 10.9,71.85 1.1,47.39 -10,36.7 -5.6,-5.39 -11.5,-7.23 -15.4,7.8 -1.9,7.61 -3.4,19.36 -3.9,37.08 -0.3,8.86 -0.4,19.27 -0.3,31.31 0.2,12.04 0.7,25.81 0.4,41.41 16.2,33.04 32.6,66.56 48.9,100.56 -3.8,35.16 -7.9,54.42 -13.1,66.75 -5.3,12.42 -10.5,18.11 -15.5,26.39 -10.2,16.57 -18.6,43.25 -26.2,153.34 -4.7,126.28 19.9,52.02 40.3,-4.62 9.2,-28.41 17.2,-52.3 21.4,-43.25 2,4.53 3.1,17.24 2.8,41.81 -1,24.37 -4.4,60.39 -10,111.54 -3.8,25.52 -9,51.24 -16.5,77.15 -8,25.71 -17.3,51.82 -27.5,78.69 -10.2,26.78 -21.4,54.23 -33.1,82.64 -12.4,28.13 -25.3,57.41 -38.9,88.04 -13.4,30.53 -26,62.61 -39.8,96.03 -14.1,33.42 -27.8,68.58 -40.8,105.95 -6.6,18.59 -12.5,37.95 -19.2,57.7 -6.7,19.65 -13.1,39.87 -19.4,60.87 -6.2,20.9 -12.1,42.58 -17.8,64.92 -2.7,11.27 -5.4,22.64 -8.2,34.1 -2.9,11.55 -5.8,23.21 -8.7,34.96 -63.9,155.85 -70,106.92 -76.3,75.8 -3.1,-15.7 -6.2,-27.06 -16.4,-6.93 -5.2,10.02 -11.7,28.03 -21.9,57.02 -10.4,28.9 -23.8,68.97 -41.1,123.68 l 31.9,-144.1 0.7,-3.28 c -35.2,105.76 -73.4,210.66 -114,314.3 -4.1,13.29 -8.4,26.29 -13.1,38.91 1.9,-6.65 3.6,-13 5.3,-19.07 -43.1,108.93 -88.8,216.62 -136.7,322.77 -9.5,21.19 -19.4,42.47 -29.3,63.76 -4,13.77 -9,28.71 -15,44.88 -5.1,13.78 -10.6,28.52 -17.2,43.54 -6.5,15.03 -13.6,30.63 -21.1,46.81 -15.3,32.18 -31.7,66.46 -49.8,100.95 -36.9,68.58 -76.8,139.95 -115.7,202.75 -19.3,31.4 -36.9,61.55 -54,87.94 -1.7,2.7 -3.3,5.3 -5,7.9 -18.4,32.07 -37.1,64.14 -55.9,96.22 -3.7,7.51 -7.1,14.64 -9.6,20.61 -2.5,2.6 -4.3,4.24 -5.7,5.2 -70.8,118.86 -145.8,237.91 -224.4,356.49 l 24.7,-3.76 c -17,16.18 -39.4,42.38 -63.5,73.39 -24.3,30.83 -50.9,65.98 -75.2,101.14 -12.3,17.53 -23.9,34.96 -34.7,51.72 -11,16.47 -21,32.27 -29.6,46.81 -17,29 -28.2,52.6 -29.5,65.89 12.1,0.77 30.1,-13.78 51.4,-37.37 21.2,-23.7 45.9,-56.35 70.3,-92.86 24.6,-36.41 50,-75.8 73.4,-112.4 23,-36.99 44.3,-70.99 61.8,-95.74 -142.4,226.64 -205.4,348.48 -267,459.44 -31.1,55.19 -61.3,107.97 -104.3,167.21 -21.3,29.77 -44.9,61.65 -73.6,96.32 -28.7,34.39 -61.6,72.05 -100.2,114.04 l 36.6,-69.06 c -25.7,24.76 -49.9,50.76 -73.9,76.96 -24.1,26.2 -47.3,53.17 -69.7,80.62 -11.2,13.68 -22.3,27.55 -33.2,41.52 -10.9,13.86 -21.9,27.74 -32.8,41.61 -21.7,27.74 -42.8,55.86 -63.6,83.89 -41.7,56.06 -83.1,110.86 -123.8,164.13 -41.5,52.3 -82.8,102.49 -125.3,147.75 54.6,-44.69 76.8,-43.63 60.4,-13.87 -200.8,189.66 -395.5,380.66 -604.4,571.37 -209,190.33 -431.4,381.68 -690.4,560.58 l -62.1,75.4 -63.9,74.1 -30.1,-22.2 c -64.8,41.9 -100,66 -117.5,82.8 -17.5,16.6 -17.9,24.9 -15.3,31.6 2.7,6.6 8.4,11.6 3,21.8 -2.7,5.1 -8.2,11.6 -18.3,20.1 -9.9,8.6 -24.6,19.2 -46,32.3 32.2,-20.4 44,-30.7 49.3,-37.2 5.3,-6.7 3.6,-10.1 7.6,-18.1 -139.2,116.2 -187.1,135.3 -219.2,140.8 -16.1,2.8 -28.3,2.2 -47,8.1 -9.4,2.8 -20.3,7.5 -34.1,14.8 -13.8,7.4 -30.4,17.7 -51.7,31.3 16.2,-19.8 44.2,-43.7 75.9,-67.4 15.8,-11.9 32.6,-23.8 49.2,-35.4 8.3,-5.8 16.5,-11.5 24.5,-17.1 7.9,-5.9 15.6,-11.6 23.1,-17 59.3,-44 98,-76.6 46.8,-73.7 -68.8,57.1 -151.9,115.3 -238.1,171.8 -21.8,13.8 -43.7,27.6 -65.4,41.4 -10.9,6.8 -21.8,13.8 -32.7,20.5 -10.8,6.9 -21.8,13.7 -33.1,20.1 -22.5,13.1 -44.4,26.5 -66.5,38.9 -22.1,12.2 -44,24.2 -65.2,36 -85.8,45.8 -164.8,84 -224.1,117 -29.8,16.2 -54.6,30.9 -72.7,45.3 -18.3,14.1 -30,26.8 -33.4,39.1 -84.2,21.9 -171.4,41.1 -260.9,57.6 -89.4,16.5 -180.9,30.2 -273.9,39.4 -92.9,9.3 -187.1,15.1 -281.5,16.7 -94.3,1.1 -188.8,-2 -282.3,-9.2 -93.5,-7 -185.8,-19.2 -275.9,-35.3 -90,-15.8 -177.86,-35.6 -261.85,-59.6 -10.5,-2.9 -21,-5.9 -31.5,-8.7 -10.3,-3.2 -20.71,-6.4 -30.92,-9.6 -20.51,-6.5 -41.03,-12.6 -61.06,-19.3 -39.97,-14 -79.47,-27.4 -117.22,-42.6 -38.18,-14.4 -74.65,-30.5 -110.39,-46 -17.94,-7.6 -35.08,-16.2 -52.27,-24.3 -17.05,-8.3 -34.15,-15.9 -50.43,-24.6 -63.74,-51.1 49.63,13.1 27.94,-12.1 -28.41,-7.8 -60.36,-20.4 -94.02,-36 -32.28,-15.7 -66.53,-34.3 -101.55,-54.7 -35.28,-19.9 -70.14,-43.3 -104.89,-66.5 -34.65,-23.5 -69.28,-46.8 -101.19,-70.8 -32.15,-23.6 -62.92,-46.2 -91.01,-67 -28.01,-20.7 -52.87,-39.9 -74.58,-55.1 -43.24,-30.7 -72.49,-47.1 -79.57,-38.5 -80.39,-72.7 -97.58,-124.8 -113.79,-151.5 -125.99,-67.4 -267.23,-162.9 -409.43,-273.5 l 109.59,73.9 -7.35,-13.7 -77.67,-52.5 -38.87,-26.3 -38.31,-27.1 3.52,6.7 c -175.51,-139.71 -354.61,-301.82 -526.81,-463.44 -172.35,-161.53 -338.26,-322.19 -491.86,-458 153.97,132.15 43.28,-21.29 64.59,-22.64 -17.46,-10.79 -35.88,-23.31 -55.16,-37.66 -27.52,-21.09 -56.83,-45.56 -87.56,-73.01 -15.36,-13.67 -31.07,-28.12 -47.08,-43.15 -15.75,-15.31 -31.76,-31.21 -48.02,-47.68 -32.35,-33.13 -66.32,-67.9 -99.6,-105.37 -134.88,-148.14 -272.01,-326.72 -388.33,-491.14 12.91,-7.32 3.97,-39.29 41.39,-8.38 -26.74,-28.41 -54.19,-56.44 -80.43,-85.43 l -79.36,-86.69 32.31,15.03 c -115.18,-173.96 -248.77,-346.75 -365.65,-511.27 -117.37,-163.93 -216.17,-320.65 -266.67,-451.45 21.41,37.47 39.51,64.34 53.76,84.47 14.34,20.13 25.33,33.14 34.41,41.81 18.17,17.14 28.72,16.47 43.13,18.2 -36.25,-65.59 -72.83,-129.84 -107.02,-195.82 -17.23,-32.94 -35.29,-65.4 -52.21,-98.92 -17.07,-33.32 -34.24,-66.94 -51.6,-100.85 -17.85,-33.71 -34.08,-68.87 -51.69,-103.83 -17.36,-35.06 -35.55,-70.6 -52.54,-107.01 -17.59,-36.31 -35.51,-73.3 -53.81,-111.06 -17.96,-38.04 -36.31,-76.86 -55.11,-116.64 11.08,15.9 20.25,25.33 25.4,23.89 -14.32,-43.92 -36.39,-89.48 -58.2,-135.91 -22.04,-46.23 -47,-91.7 -66.47,-135.14 l 29.13,-23.88 c -18.52,-41.13 -36.1,-86.21 -53.49,-133.6 -16.09,-47.97 -31.98,-98.24 -48.52,-149.49 -8.63,-25.43 -15.6,-51.82 -23.73,-77.92 -7.93,-26.2 -16.14,-52.49 -24.73,-78.6 l -13.13,-39.2 c -4.21,-13.1 -8.42,-26.2 -12.61,-39.3 -8.66,-26.1 -17.83,-51.91 -27.64,-77.34 2.23,-11.47 1.43,-27.74 -1.75,-48.16 -3.03,-20.33 -7.38,-45.08 -13.88,-72.82 -6.36,-27.74 -14.38,-58.66 -23.42,-91.89 -4.79,-16.47 -8.78,-33.81 -13.08,-51.62 -4.36,-17.73 -8.83,-35.94 -13.37,-54.52 -4.58,-18.49 -9.23,-37.37 -13.93,-56.45 -2.34,-9.53 -4.69,-19.16 -7.05,-28.79 -2.27,-9.64 -4.01,-19.46 -6.04,-29.19 -7.81,-39.11 -15.42,-78.5 -22.28,-117.22 -7.59,-38.63 -11.02,-77.15 -14.64,-113.56 -3.35,-36.51 -5.5,-71.18 -5.95,-102.87 -5.99,-48.45 5.44,4.24 19.58,34.1 6.71,14.92 13.17,24.46 16.48,13.39 3.58,-11.08 2.37,-42.39 0.27,-109.91 -19.48,-8.76 -30.12,-35.25 -36.37,-70.41 -2.95,-17.62 -5.54,-37.27 -6.26,-58.08 -0.54,-20.8 -0.5,-42.67 -0.49,-64.34 0.22,-43.34 -0.61,-86.11 -4.91,-119.72 -3.65,-33.62 -12.87,-58.18 -33.13,-64.83 7.89,-40.16 14.9,-80.14 23.62,-119.82 l 29.41,-118.57 -34.32,-59.04 c 56.76,-96.81 59.32,-173.67 66.9,-268.64 1.72,-23.6 4.07,-47.87 6.64,-73.68 2.34,-25.82 6.58,-52.69 12.18,-81.39 2.79,-14.36 5.94,-29.09 9.55,-44.31 4.04,-15.12 8.61,-30.63 13.73,-46.72 5.18,-15.99 10.72,-32.65 17.31,-49.6 6.9,-16.86 14.49,-34.19 22.87,-52.11 2.42,18.78 -6.68,51.15 4.54,38.14 3.44,-12.23 7.67,-26.39 12.28,-41.51 4.53,-15.12 9.59,-31.11 15.22,-46.81 10.72,-31.69 21.36,-63.19 29.16,-86.21 15.64,-46.14 14.73,-61.55 -32.04,17.82 16.98,-38.62 43.43,-100.84 75.92,-167.02 7.77,-16.66 16.37,-33.32 25.18,-50.08 8.77,-16.67 17.57,-33.43 26.27,-49.99 17.99,-32.85 36.6,-64.35 53.41,-92.95 17.77,-28.03 34.12,-53.08 47.82,-72.92 13.79,-19.74 25.71,-33.9 33.07,-41.12 15.19,-14.36 13.25,-0.2 -12.68,59.23 -2.49,-7.13 -11.12,0.68 -23.42,17.72 -12.16,17.24 -28.71,43.35 -44.39,74.27 -16.13,30.63 -33.29,64.92 -47.53,98.05 -7.25,16.47 -14.27,32.46 -20.75,47.2 -5.96,15.02 -11.43,28.7 -16.14,40.55 9.48,0.96 22.44,-12.81 38.27,-34.1 16.26,-21.09 34.68,-50.08 54.57,-79.95 20.67,-29.37 41.35,-60.48 62.41,-85.24 21.05,-24.75 40.78,-44.21 56.99,-51.82 0.97,-8.86 14.22,-39.1 22.64,-61.93 l 37.78,-16.66 c 72.79,-137.07 172.3,-259.68 272.94,-366.6 100.59,-107.49 203.01,-198.42 282.67,-286.93 8.77,0.57 25.86,-5.4 51.8,-19.56 25.56,-14.54 61.52,-35.15 107.29,-65.5 l -18.94,-40.35 c 99.26,-59.24 203.55,-111.35 311.96,-154.79 -42.93,39.88 -82.66,82.45 -120.77,124.54 21.03,-9.82 42.2,-18.49 62.52,-27.83 10.18,-4.72 20.26,-9.35 30.27,-13.97 10.15,-4.33 20.2,-8.57 30.17,-12.91 19.95,-8.57 39.48,-17.24 58.68,-26 19.53,-7.9 38.75,-15.89 57.67,-23.99 9.47,-4.14 18.87,-8.18 28.2,-12.13 9.47,-3.76 18.88,-7.52 28.23,-11.18 18.74,-7.6 37.26,-15.02 55.58,-22.44 18.36,-7.42 36.96,-13.58 55.21,-20.51 18.37,-6.55 36.41,-13.97 54.75,-19.85 18.4,-6.06 36.67,-12.04 54.85,-17.91 9.14,-2.99 18.25,-5.97 27.35,-8.86 9.16,-2.8 18.38,-5.2 27.57,-7.71 36.77,-10.01 73.72,-20.61 110.7,-27.26 18.59,-3.66 37.21,-7.22 55.88,-10.88 9.38,-1.64 18.78,-3.37 28.19,-5.01 9.44,-1.64 18.91,-2.41 28.42,-3.56 38.01,-4.05 76.73,-8.29 116.03,-9.44 10.04,9.44 27.01,16.37 49.48,21.48 11.23,2.5 23.85,4.52 37.69,6.26 13.85,1.63 28.93,2.79 44.87,4.81 31.96,3.57 68.23,5.97 107.33,8.38 38.78,3.66 80.37,7.61 123.41,11.66 42.4,5.87 86.79,11.17 130.38,18.87 21.66,4.24 43.31,8.58 64.79,13.11 21.47,4.62 42.85,9.15 63.19,15.21 20.5,5.78 40.61,11.75 60.15,18.02 9.73,3.17 19.35,6.45 28.84,9.53 9.36,3.47 18.38,7.13 27.3,10.79 35.52,14.93 68.37,30.34 95.76,48.16 -37.18,-8.77 -75.06,-16.37 -112.41,-24.56 -37.55,-7.9 -76.02,-14.07 -113.82,-21 29.95,7.13 58.28,14.16 85.19,21.09 26.79,7.03 51.56,14.93 75.45,22.06 47.97,14.16 89.53,29.57 128.26,43.73 38.98,13.87 73.08,28.99 106.26,42.67 33.23,13.58 63.68,27.93 94.24,41.71 121.66,55.38 237.75,110.57 438.86,188.01 -80.35,-43.34 -142.15,-74.93 -196.47,-102.1 -27.3,-13.48 -52.6,-26 -77.51,-38.23 -25.22,-12.24 -50.03,-24.28 -76.03,-36.9 -25.82,-12.81 -53.41,-26 -83.81,-40.64 -15.17,-7.52 -31.05,-15.32 -47.84,-23.51 -17.04,-8.09 -35,-16.66 -54.1,-25.81 -19.15,-9.15 -39.43,-18.88 -61.06,-29.28 -22.07,-10.02 -45.53,-20.61 -70.56,-31.98 -12.54,-5.78 -25.49,-11.65 -38.86,-17.72 -13.65,-5.88 -27.74,-11.85 -42.29,-18.01 -14.59,-6.17 -29.64,-12.53 -45.17,-19.17 -7.79,-3.28 -15.7,-6.65 -23.74,-10.02 -8.21,-3.18 -16.54,-6.35 -25.02,-9.73 273.9,94.4 497.55,178.87 710.94,262.57 106.32,42.19 208.93,84.76 311.29,131.09 102.01,46.24 203.33,95.94 306.89,152.48 -35.72,3.66 -149.22,-33.81 -50.33,29.38 49.99,1.34 151.4,44.59 234.58,77.24 41.51,15.99 78.59,29.48 102.1,35.16 23.59,5.68 33.71,2.5 21.76,-13.39 63.76,30.63 98.35,58.37 127.14,80.91 28.81,22.83 51.73,43.73 92.23,58.27 156.7,27.55 311.5,42.96 462.7,42.77 l -14.8,7.03 c 11.8,3.08 23.4,6.07 35.2,9.15 l 17.5,4.43 17.6,3.47 c 23.5,4.43 47,8.77 70.5,12.81 l 17.6,3.08 c 5.9,0.87 11.7,1.35 17.5,2.03 11.8,1.25 23.5,2.5 35.2,3.75 11.7,1.16 23.5,2.32 35.1,3.47 11.7,1.06 23.4,2.41 35.1,2.5 23.4,0.48 46.8,1.06 70,1.64 11.7,0 23.3,0.77 35,0.1 l 34.8,-1.74 c 23.3,-1.25 46.5,-2.31 69.6,-4.04 23,-2.79 46.1,-5.59 69.1,-8.38 l 34.3,-4.43 34.3,-6.17 c 22.9,-4.33 45.6,-8.67 68.2,-13 22.8,-5.01 45.3,-10.88 67.7,-16.37 22.6,-5.59 45,-10.99 67.3,-18.02 22.2,-6.74 44.5,-13.48 66.7,-20.22 22.3,-6.75 44.2,-15.13 66.3,-22.64 44.1,-14.83 87.9,-32.46 131.7,-49.7 21.8,-8.19 43.6,-18.11 65.4,-27.26 21.7,-9.44 43.5,-18.3 65.3,-28.22 43.5,-20.03 86.9,-39.01 130.6,-60.2 21.8,-10.4 43.6,-20.8 65.6,-31.11 21.8,-10.69 43.9,-21.48 65.8,-32.17 44.4,-21.67 88.8,-43.35 133.4,-65.21 180,-87.94 367.1,-178.48 575.8,-256.12 l -6.4,28.42 c 51.6,-32.65 104.4,-64.92 157.9,-96.8 -32.9,21.86 -12.8,20.32 20.7,12.52 42.6,-9.25 107.6,-27.16 117.7,-20.03 174.5,-84.57 359.1,-161.82 557.7,-220.77 8.8,8.57 6.6,26.49 -15.9,44.98 -11.3,9.34 -27.6,18.78 -50.2,27.36 -11.3,4.43 -24.3,8.18 -38.7,12.42 -14.4,4.24 -30.5,8.28 -48.6,11.85 56.1,-9.54 113.1,-19.75 169,-33.71 28.2,-6.17 56.5,-12.33 84.6,-19.17 14.1,-3.47 28.1,-6.84 42.1,-10.21 14.2,-3.08 28.3,-6.07 42.4,-9.05 112.1,-26.49 225.6,-43.93 330,-45.76 -23.8,6.46 -47.3,14.45 -70.7,21.68 l 52.1,-5.49 c 17.3,-1.93 34.9,-2.12 52.4,-3.18 l 52.6,-2.51 c 17.6,-0.77 35.2,-1.83 52.9,-1.25 l -4.6,29.19 c 21.5,1.05 43.4,2.41 65.4,4.04 22.1,1.73 44.3,2.7 66.8,6.26 22.5,3.18 45.2,6.46 67.8,9.73 22.5,3.47 45,8.57 67.4,13 11.2,2.32 22.4,4.72 33.6,7.03 11,2.41 22,5.49 33,8.29 21.9,5.68 43.6,11.36 65.1,17.05 21.3,6.64 42.2,13.09 62.9,19.55 10.3,3.27 20.5,6.45 30.7,9.63 9.9,3.57 19.9,7.13 29.7,10.69 19.6,6.94 38.8,13.78 57.5,20.52 18.5,7.22 36.4,14.25 53.8,21.1 17.4,7.02 34.5,12.9 50.4,19.83 16,6.65 31.4,13.01 46.2,18.79 29.8,11.27 56,22.25 79.4,30.44 23.3,8.28 44.2,13.19 60.6,16.37 -19.3,6.74 -38.9,14.45 -58.1,22.15 111.9,45.85 220.3,101.23 324.1,164.61 -15.5,-8.28 -30.7,-16.76 -46.2,-24.85 l -47,-23.21 c -15.8,-7.61 -31.1,-15.7 -47.2,-22.63 l -47.8,-21.19 c 20.8,14.35 43.1,28.12 64.7,43.72 21.7,15.41 44,31.11 66.7,47.2 22.1,16.66 44.6,33.52 67.2,50.57 22.6,17.33 44.6,35.54 67.2,53.36 88.9,72.72 174.3,151.51 248.5,227.6 149.1,151.61 250.9,292.52 274.4,327.97 l -34.6,-20.13 c 14.5,29.47 31.1,53.07 48.5,76.86 17.5,23.7 37.3,46.43 56.4,74.55 -16.3,-10.69 -32.4,-21.28 -49.1,-31.3 78.7,125.89 130.4,236.37 170.3,337.6 39.6,101.43 67.7,193.8 92.5,288.96 11.6,47.87 23.9,95.93 34.3,146.89 2.8,12.62 5.6,25.52 8.5,38.53 2.5,13 5,26.29 7.6,39.78 5.1,26.77 11.3,54.51 15.3,82.93 4.7,28.41 9.7,57.89 14.8,88.52 5,30.63 11.9,62.31 15.6,95.83 4.6,33.43 9.4,68.29 14.5,104.9 2.4,18.3 6,36.89 7.7,56.15 2,19.17 4,38.82 6.1,58.95 2.2,88.23 -1.5,63.86 -7.5,17.43" /></g><path
         id="path116"
         style="fill:#040606;fill-opacity:1;fill-rule:nonzero;stroke:none"
         d="m 13296.4,2230.9 c 8.6,-5.8 20.6,-13 36.9,-22.2 -12.4,7.3 -24.6,14.8 -36.9,22.2" /><path
         id="path118"
         style="fill:#040606;fill-opacity:1;fill-rule:nonzero;stroke:none"
         d="m 8560.56,10492.1 -4.08,-7.8 c 17.68,14.3 33.83,27.6 50.96,40.5 -15.87,-10.6 -31.34,-21.7 -46.88,-32.7" /><path
         id="path120"
         style="fill:#040606;fill-opacity:1;fill-rule:nonzero;stroke:none"
         d="m 7084.25,13236.9 28.02,-49.9 c -26.69,52.1 -7.46,59.5 -65.47,121.1 12.48,-23.7 24.57,-47.7 37.45,-71.2" /><path
         id="path122"
         style="fill:#040606;fill-opacity:1;fill-rule:nonzero;stroke:none"
         d="m 7112.27,13187 c 3.15,-6.2 6.79,-12.8 11.42,-20.4 l -11.42,20.4" /><path
         id="path124"
         style="fill:#040606;fill-opacity:1;fill-rule:nonzero;stroke:none"
         d="m 7134.58,13245.6 54.42,-75.3 -32.04,80.9 z" /><g
         transform="scale(1.16944)"
         id="g126"><path
           id="path128"
           style="fill:#040606;fill-opacity:1;fill-rule:nonzero;stroke:none"
           d="m 8263.52,16273.3 20.12,-3.3 c -22.47,30 -23.4,19.9 -20.12,3.3" /></g><g
         transform="scale(1.07741)"
         id="g130"><path
           id="path132"
           style="fill:#040606;fill-opacity:1;fill-rule:nonzero;stroke:none"
           d="m 9638.95,16281 -24.97,19 c 0.38,-5.9 1.58,-12.1 2.32,-18.2 6.87,-4.4 14.39,-5.3 22.65,-0.8" /></g><g
         transform="scale(1.19936)"
         id="g134"><path
           id="path136"
           style="fill:#040606;fill-opacity:1;fill-rule:nonzero;stroke:none"
           d="m 7776.03,16300 c 4.65,-22 11.67,-44 21.24,-64.6 13.23,1.9 8.5,27.4 -21.24,64.6" /></g><g
         transform="scale(1.04931)"
         id="g138"><path
           id="path140"
           style="fill:#040606;fill-opacity:1;fill-rule:nonzero;stroke:none"
           d="m 10017.3,16300 c 4.3,-29.1 9.3,-54.1 13.6,-81 2.7,19.5 -0.7,48.7 -13.6,81" /></g><g
         transform="scale(1.22976)"
         id="g142"><path
           id="path144"
           style="fill:#040606;fill-opacity:1;fill-rule:nonzero;stroke:none"
           d="m 4838.68,12991.2 c 7.74,19.9 20.17,39.3 20,82.4 8.71,-28 11.88,-47.9 11.75,-63.3 -0.26,-15.4 -2.74,-26.1 -7.03,-35.6 -8.24,-19 -20.9,-32.8 -18.88,-67.8 -17.04,44.2 -13.35,64.5 -5.84,84.3 z m 27.88,192 c 25.88,-66.8 19.16,-75.3 15.72,-121.9 -11.25,13.8 -19.13,75 -15.72,121.9 z m 223,1305.6 c 3.41,5.9 6.97,12.8 10.42,20.5 -9.16,-40.7 -17.58,-81.4 -25.37,-122.3 -4.42,2.6 -5.79,9.1 -6.02,18.7 -0.29,16 2.77,39.9 -1.65,66 2.88,-8 12.53,0.1 22.62,17.1 z m 303.06,1052.3 c 23.85,24.2 41.1,36.5 28.55,15.9 -31.53,-51.8 -14.59,-46 5.03,-36.6 19.72,9.5 42.13,22.5 23.79,-11.9 11.84,16.7 23.29,33.8 35.53,50.3 -19.98,-47.9 -36.09,-57.5 -52.8,-62.8 -8.24,-2.7 -16.6,-4.2 -24.92,-9.1 -8.12,-4.9 -16.41,-13.2 -24.87,-28.9 7.7,13.9 14.88,28.2 23.09,41.9 0.68,11.2 -2.6,13.8 -8.29,11.5 -2.83,-1.2 -6.28,-3.6 -10.12,-6.8 -3.67,-3.3 -7.67,-7.4 -11.87,-11.9 -16.77,-17.9 -36.4,-41.1 -47.25,-39.3 12.06,26 39.53,64 64.13,87.7 z m 58.11,131.2 c 9.54,13.3 20.4,23.5 32.74,31.4 12.14,8 24.59,14.1 36.77,19.3 12.31,5.1 24.12,9.6 34.61,14.7 5.54,3.5 10.28,7 17.22,10.1 -5.29,-3.6 -11.14,-7.2 -17.22,-10.1 -33.91,-21 -47.47,-46 -61.81,-66.9 -13.61,-21.3 -28.09,-38.8 -65.12,-48.8 5.28,20.6 13.28,37.1 22.81,50.3 z m 733.75,296.7 c -9.27,-3.5 -18.51,-7.1 -27.73,-10.9 -2.15,1.3 -4.27,2.5 -6.45,3.8 11.25,2.8 22.68,5.1 34.18,7.1 z m 194.77,139.4 c 21.36,0.6 39.62,2.7 50.46,7.9 10.86,4.9 14.37,13.3 5.35,27.1 l 27.82,-18.5 -22.63,-5.9 c 32.4,0 64.68,-1.1 96.71,-3.6 -61.06,-19.9 -113.31,-21.9 -160.89,-19.5 -23.58,0.7 -45.96,3.3 -66.34,4.2 -10.23,0.6 -20.06,1.1 -29.36,1.2 -9.23,-0.2 -17.97,-0.8 -26.13,-1.9 27.58,7.7 82.73,6.6 125.01,9 z m 822.97,-47.1 c 14.1,-10.3 24.59,-17.8 34.36,-24.2 9.43,-6.8 18.31,-12.2 29.58,-17.6 -3.78,10.8 -17.16,30.7 -25.17,43.9 -7.88,13.3 -8.9,21.6 15.41,11.6 11.09,-16.9 41.31,-41.9 66.92,-65.4 24.55,-24.7 44.19,-48 37.56,-58.5 -16.71,19.9 -35.08,34.6 -54.17,44.4 -19.23,9.7 -37.92,15.8 -53.89,21.2 -7.98,2.7 -15.29,5.2 -21.71,7.8 -6.46,2.6 -12.33,5 -16.88,8.1 -9.16,6.3 -13.77,14.8 -12.01,28.7 z m 317.94,-174.2 c 17.14,-16.9 35.12,-33.2 50.99,-50.9 11.51,-8.7 22.36,-18.8 31,-33.1 l -31,33.1 c -14.52,11.4 -30.06,18.3 -40.38,25.3 -10.28,7.1 -15.46,14.3 -10.61,25.6 z m 105.58,-368.8 c -9.16,7.4 -16.44,14.3 -22.76,20.4 -6.36,6.1 -11.34,11.7 -15.29,16.9 -7.91,10.6 -11.7,19.9 -14.01,28.9 -2.31,9 -3.14,17.7 -5.08,27.2 -1.98,9.4 -5.54,19.2 -12.71,30.8 -8.35,9.4 -17.63,20.1 -28.63,34.2 14.16,-13.3 22.28,-24.1 28.63,-34.2 8.06,-8.8 14.69,-16.1 20.04,-21.9 5.08,-6.1 8.79,-10.9 10.89,-14.8 4.18,-8 1.91,-12.8 -8.7,-18.6 7.16,-23.9 41.45,-44.2 47.62,-68.9 z m 205.14,-270.6 c 0.55,-32.8 7.78,-65.3 19.33,-97.6 -17.96,30.9 -36.43,61.7 -55.42,92.3 0.62,0.1 1.27,0.1 1.88,0.2 9.21,1.7 16.95,7 34.21,5.1 z m 750.33,-2188.5 c 2.52,19.8 5.94,35.7 10.08,50.9 4.07,15.1 8.95,29.5 14.48,46.3 5.53,16.7 11.62,35.9 17.56,60.4 9.51,-29.2 12.36,-54 12.28,-74.1 -0.16,-20.2 -3.9,-35.9 -9.43,-47.6 -11.15,-23.2 -29.68,-30.2 -41.8,-24.6 -9.11,-85.4 15.69,-66.1 26.1,-110.1 l -35.61,24.7 c 1.3,30.6 3.65,54.4 6.34,74.1 z m 41.71,266.1 c 13.91,-49.9 28.47,-99.9 41.56,-150.3 5.93,-12.6 10.65,-28.6 12.6,-49 l -12.6,49 c -12.53,28.2 -32.12,43.3 -43.43,62.6 -11.38,19.3 -15.04,42.6 1.87,87.7 z m 77.17,-1093.7 c -0.65,-43 -5.61,-88.9 -12.92,-108 0.4,30.6 -1.39,85.7 -1.63,130.4 -0.17,22.3 -0.65,42.1 -0.98,54.8 -0.24,12.8 -0.16,18.6 0.57,13.1 5.61,-3.7 9.6,-15.5 12.2,-31.7 2.52,-16.3 3.09,-37.1 2.76,-58.6 z m -90.42,531 c 2.11,-0.2 4.23,0.1 6.18,0.6 -1.95,-1.5 -4.07,-1.8 -6.18,-0.6 z m -13.5,-382.5 c 0,1.4 0,2.8 0,4.2 7.48,28 17.57,48 30.66,39.6 -10.82,-72 -21.96,-34.3 -30.66,-43.8 z m -77.41,-1014.3 c -1.79,-34.7 -10.09,-80.8 -13.42,-99.4 -6.26,-9.5 -12.36,-19.6 -18.46,-29.9 10.9,53.8 21.06,107.7 30.33,161.8 1.95,-7.7 2.36,-19.3 1.55,-32.5 z m -61.88,-615.5 c -12.04,-16.6 -34.65,-54.1 -55.79,-80.6 -20.49,-26.8 -39.03,-42.5 -39.03,-18.3 20.9,47.3 44.23,118.4 60.58,188.1 16.59,69.5 26.02,137.4 26.51,177.2 -4.15,5.7 -6.26,14.9 -2.93,32.2 2.44,-5.9 3.01,-18 2.93,-32.2 5.12,-6.1 13.83,-5.7 22.36,0.6 6.02,13.8 12.93,25.6 20.41,30.2 -3.09,-13.1 -11.54,-24.3 -20.41,-30.2 -7.97,-18.3 -14.88,-41.7 -19.35,-64.1 -4.88,-22.4 -7.4,-43.8 -6.59,-57.9 9.27,5.6 17.24,23.3 24.8,42.1 7.65,18.8 14.4,38.8 22.2,49 6.35,-48.2 -30.65,-114.8 -55.45,-164.3 -12.77,-24.8 -21.88,-45.6 -21.07,-58.9 0.74,-13.1 11.96,-18.9 40.83,-12.9 z m -210.21,-315.9 c -15.94,-20.4 -33.26,-40.3 -50.99,-59.9 39.85,71.2 75.06,145.1 106.29,220.8 7.88,9.8 15.61,19.4 23.09,28.8 7.89,-58.3 -27.97,-125.5 -78.39,-189.7 z M 8045.92,10106 c -12.72,-12.7 -24.7,-26 -38,-38.1 7.54,10.5 14.32,21.5 21.24,32.3 7.04,10.7 13.47,21.9 19.82,32.9 z M 7310.6,9764.66 c -87.32,-0.04 -175.58,13.87 -258.85,41.29 -41.64,13.66 -82.09,30.35 -120.92,49.57 -4.01,2.1 -7.95,4.28 -11.93,6.41 2.46,-1 4.87,-2.08 7.34,-3.07 1.93,-0.8 3.52,-1.5 5.37,-2.21 114.13,-45.49 233.09,-67.64 351,-68.33 15.26,-4.09 30.71,-8.52 47.12,-11.68 31.33,-6.62 66.28,-7.99 106.11,5.75 -10.54,4.07 -20.28,8.64 -30.72,13.04 31.63,3.85 63.02,9.12 94.07,16.02 2.55,-0.87 7.2,-1.66 14.57,-2.16 10.43,-0.66 26.45,-1.78 49.28,-0.9 -78.79,-28.73 -165.16,-43.14 -252.44,-43.73 z m -158.65,-20.7 -25,-11.3 c -14.76,12.84 -28.8,26.81 -42.38,40.42 15.19,-3.31 30.33,-6.96 45.7,-9.44 l 23,-4.11 23.13,-3.21 z m -363,98.72 c -50.31,10.1 -84.53,29.94 -111.93,52.89 -27.06,23.76 -48.48,49 -77.21,68.42 l 38.93,-8.04 c -10.54,8.56 -19.97,16.56 -28.42,24.07 -8.5,7.41 -15.43,15.27 -21.91,22.08 -12.79,14 -22.41,26 -30.03,36.6 -7.22,10.3 -12.69,19.1 -17.31,27.3 18.71,-12.8 37.64,-25.2 56.73,-37.4 -1.76,-0.4 -3.65,-0.6 -5.72,-0.7 5.87,-3.9 11.91,-7.8 18.1,-11.9 6.11,-4.2 12.41,-8.4 19.04,-12.3 13.12,-8.1 26.57,-16.65 40.1,-25.53 13.53,-8.88 27.13,-18.1 40.57,-27.53 13.49,-9.31 27.46,-17.65 40.64,-26.73 13.26,-8.92 26.09,-17.92 38.21,-26.9 12.12,-8.98 23.47,-18.08 34.39,-25.86 21.55,-16.17 39.13,-31.89 50.39,-46.23 -39.6,3.71 -78.1,28.53 -107.01,55.4 -29.45,26.02 -51.77,49.49 -64.78,48.13 28.09,-28.47 96.64,-62.58 87.22,-85.77 z m -425.34,318.62 c -4.04,5.6 -10.05,11.7 -17.53,18.2 -7.48,6.5 -16.53,13.3 -25.92,21.2 -19.06,15.3 -41.84,32.2 -64.2,49.7 -5.55,4.4 -11.09,8.9 -16.6,13.3 -5.26,4.6 -10.43,9.3 -15.44,14 -10.02,9.4 -19.4,18.9 -27.63,28.2 -16.38,18.7 -28.38,36.6 -30.96,53.5 16.42,-15.7 33.35,-30.9 49.99,-46.4 l 25.05,-23 12.52,-11.6 13,-11 c -4.03,4.4 -8.04,8.8 -12.04,13.2 -3.88,4.5 -7.74,9 -11.58,13.5 -7.77,8.8 -15.46,17.5 -23.05,26.1 -15.2,17.1 -30.44,33.3 -44.39,49.4 -7.34,8.8 -14.48,17.5 -21.37,26 66.4,-68.7 136.01,-133.8 208.9,-194.5 4.39,-11.8 10.57,-27.2 1.25,-39.8 z m -267.58,286.6 c -5.76,8.2 -11.75,16.5 -17.8,24.7 -5.57,7.5 -11.18,15 -16.71,22.5 14.07,-16 28.31,-31.8 42.69,-47.4 0.28,-6.5 2.31,-13.7 9.06,-23.6 -5.4,7.9 -11.31,15.8 -17.24,23.8 z m -816.7,1371.8 c -3.42,14.7 -5.39,29.9 -8.14,44.8 0.6,8.3 2.53,12.6 5.01,15.2 8.68,-24.5 17.6,-48.9 26.67,-73.3 -2.74,-7.6 -9.81,-5.7 -23.54,13.3 z M 7303.18,15828 c 2.75,3.9 8.67,6.4 18.4,7 -2.34,-13.3 5.28,-28.5 18.31,-44.4 6.01,-7.3 13.26,-14.7 21.15,-22.3 -19.03,16.2 -38.43,31.8 -58.17,46.9 -1.86,5.1 -1.98,9.5 0.31,12.8 z m 1420.25,-3738.3 16.67,50.2 c -3.58,-50.1 -10.24,-55.7 -16.67,-50.2 l -14.23,-41.6 c -10.57,110.4 1.71,53.3 14.23,41.6 z m -3919.92,1305.2 -24.78,-167 23,96.2 c 1.98,-23.2 3.42,-47.9 4.42,-73.4 0.39,-12.8 0.8,-25.8 1.2,-38.9 0.37,-13.2 1.43,-26.4 1.98,-39.7 2.61,-53.1 3.97,-107.1 4.74,-156.7 -0.06,-24.9 2,-48.4 2.77,-70.2 1,-21.9 1.91,-41.9 2.71,-59.5 1.61,-35.1 2.85,-60.4 4.14,-70.2 l 12.61,18.6 c 5.65,-14.5 6.79,-28.1 6.41,-42.1 -0.28,-13.9 -1.3,-28.2 -1.18,-44.2 l 17.99,27.4 c 9.9,-69.2 21.26,-125.3 33.12,-175.3 1.52,-6.2 3.02,-12.4 4.49,-18.4 1.76,-6.1 3.5,-12 5.23,-17.9 3.56,-11.7 7.05,-23.2 10.49,-34.5 7.06,-22.6 13.93,-44.6 20.88,-66.9 6.91,-22.2 13.74,-44.7 20.4,-68.3 3.13,-11.9 7.05,-23.8 10.8,-36.2 3.75,-12.4 7.48,-25.2 11.15,-38.4 7.37,-26.6 14.59,-55.2 21.65,-86.8 3.52,-15.8 7.01,-32.3 10.45,-49.7 3.86,-17.3 7.89,-35.3 12.13,-54.3 29.15,-79.7 -6.35,47 5.32,51.5 30.03,-39.4 44.52,-147.7 41.84,-173.3 26.13,34 -20.78,155.1 33.9,68.7 3.43,-71.8 17.31,54.7 45.51,-64.5 -9.67,-19.8 -18.16,-39.4 -27.22,-59.3 29.5,-62.4 37.5,-2 68.24,-105.4 10.79,-61.5 -13.24,-30.2 -32.87,-7 -19.57,23.3 -34.82,38.3 -5.25,-57.5 19.58,-46.4 62.88,-86.6 106.87,-137.7 11.2,-12.8 21.61,-26.5 33.26,-40.7 11.43,-14.2 22.59,-29.5 33.16,-46 21.13,-33.1 39.85,-71.4 53.65,-117.8 46.2,-69.7 52.71,-42.3 58.32,-24.6 5.75,17.9 11.03,26.8 55.59,-77.1 l -18.04,69 c 23.33,-48.7 47.52,-97 72.51,-144.9 2.36,-5.9 4.88,-11.8 7.62,-17.4 -1.03,3 -2,5.7 -2.92,8.4 26.6,-50.6 54.05,-100.9 82.49,-150.6 5.64,-9.8 11.39,-19.6 17.11,-29.4 2.02,-7.1 4.68,-14.6 8.03,-22.8 5.55,-13.4 12.75,-28.1 21.09,-43.6 8.33,-15.4 18.52,-31.2 28.91,-47.3 10.49,-16.1 21.56,-32.4 32.69,-48.3 11.11,-15.9 23.1,-30.9 34.1,-45.4 12.33,-15.9 23.8,-30.8 34.08,-44 10.62,-15.4 21.34,-30.8 32.18,-46.1 1.66,-3.1 3.2,-6.2 4.27,-8.8 1.24,-0.7 2.16,-1.2 2.98,-1.5 40.31,-56.5 82.32,-111.8 125.88,-165.7 l -17.44,-3.4 c 10.62,-6 24.05,-16.8 38.18,-30.2 14.24,-13.3 28.64,-29.6 42.92,-45 28.02,-31.4 50.46,-64 49.82,-80.1 -17.18,-7 -44.64,19.1 -72.94,52.2 -14.42,16.3 -27.98,35.3 -40.78,52.7 -12.83,17.3 -24.76,33.2 -34.85,44.4 19.95,-26.5 36.71,-50.4 51.11,-72.2 14.61,-21.6 27.66,-40.6 38.62,-58.5 11.07,-17.8 20.53,-34.2 29.21,-49.6 9.14,-15.2 17.59,-29.2 25.89,-42.9 8.37,-13.7 16.78,-27.1 26.06,-40.5 4.69,-6.7 9.38,-13.6 14.78,-20.2 5.43,-6.6 11.19,-13.3 17.4,-20.1 25.09,-26.9 55.83,-57.5 103.74,-90 l -20.62,34.7 c 31.7,-18 59.95,-39.6 86.34,-63.4 27.39,-22.6 52.81,-47.5 77.42,-72.8 25.09,-24.7 50.35,-48.7 75.13,-72.1 6.25,-5.7 12.4,-11.5 18.75,-16.9 6.49,-5.3 12.98,-10.43 19.5,-15.4 13.04,-9.96 26.16,-19.33 39.43,-27.82 -34.09,12.56 -48.44,4.5 -38.02,-10.36 126.17,-64.55 249.81,-129.34 383.77,-183.33 69.95,-28.45 144.71,-50.16 222.81,-62.77 39.11,-6.18 79.09,-9.76 119.7,-11.06 40.63,-0.65 81.86,0.81 123.38,5.69 17.1,-5.44 34.5,-10.49 52.17,-15.29 17.6,-4.3 35.63,-9.26 53.73,-12.68 l 1.54,30.66 c 20.08,4.8 35.56,8.62 47.77,10.97 12.23,2.12 21.1,3.1 27.65,3.1 13.12,-0.17 17.09,-4.97 19.32,-10.49 2.25,-5.53 2.75,-11.88 9.28,-14.97 6.58,-3.17 19.18,-2.68 45.38,5.69 -40.14,-11.79 -34.23,-4.79 -44.36,0.33 49.54,4.39 80.53,12.52 100.22,20.49 19.63,8.38 28.47,16.02 34.15,23.91 5.71,7.81 8.57,15.29 16.42,22.91 7.96,7.42 20.52,15.6 45.96,24.99 -30.12,3.18 -77.82,-15 -115.94,-23.88 -38.15,-8.89 -64.65,-11.01 -48.93,16.16 46.18,5.4 97.3,19.82 147.35,39.5 50.1,19.65 98.9,44.82 142.43,69.68 87.36,49.35 153.58,97.8 189.68,82.69 7.42,8.8 14.9,17.66 22.43,26.58 7.27,9.1 14.59,18.3 21.96,27.5 7.54,9 14.38,18.7 21.62,28.1 l 10.81,14.2 c 3.58,4.7 6.67,9.4 10,14.1 26.19,37.9 54.41,75.3 79.61,114.7 51.48,78.1 99.86,159.7 142.88,241.7 86.03,164.1 151.82,328.9 191.25,464.1 -2.11,40.3 -15.93,-20.5 -21.71,-3.6 34.89,48.1 50.42,140.5 59.2,218.8 4.23,39.3 7.65,75.3 12.2,101 4.8,25.7 9.76,41.5 19.19,40.2 -0.41,54.2 -23.42,80.7 -30.74,96.4 29.44,65.8 51.56,147.5 68.07,235.4 l -19.03,-63.3 -4.07,7.8 27,89.7 1.79,-3.7 c 18.21,109.7 31.47,228.9 42.2,345.8 1.54,14.6 3.09,29.1 4.63,43.6 1.39,14.5 2.77,29 4.15,43.4 2.85,28.7 6.1,57.1 9.76,85 3.42,27.9 6.75,55.4 10.98,82.2 3.98,26.8 9.35,52.9 13.98,78.3 -22.11,-100.4 -39.11,-5.7 -53.26,-12.9 25.45,51.9 39.2,133.5 42.69,225.7 1.31,24.9 1.31,50.6 0.9,76.7 -0.41,26.1 -1.22,52.5 -2.44,79 -3.34,52.8 -7.73,105.7 -13.42,155.4 -12.36,-1.9 -23.66,12.7 -31.39,-11.4 l 13.66,117.4 -13.41,-16.7 c -3.5,25.6 -7.08,51.6 -9.27,77.7 -2.28,26.2 -3.66,52.6 -4.72,78.8 -1.46,26.3 -2.36,52.5 -3.09,78.4 -0.73,26 -0.89,51.7 -2.19,76.7 -3.66,100.3 -10.9,191.9 -37.9,256.6 9.27,-84.7 -3.58,-87.5 -21.39,-99.3 -25.45,145.9 -53.58,282.4 -80.66,454.8 -1.22,-10 -3.74,-16.9 -8.05,-18.3 -16.26,42.6 -17.32,98.8 -22.77,145.8 l -30.33,-2.2 c -6.34,44.2 -20.9,92.8 -36.11,143.4 -15.85,50.4 -29.92,103.5 -36.75,156.9 -22.53,14.1 -35.78,76.9 -53.27,149.4 -4.3,18.2 -8.7,37 -13.09,56 -4.87,18.7 -10.08,37.5 -15.61,55.8 -11.22,36.4 -23.09,70.9 -38.79,97.5 -11.79,45.5 8.7,-106.6 -41.47,13.9 25.94,21.2 9.92,60.8 -6.42,99 -16.43,38.2 -31.88,75.6 -2.52,95.1 -11.71,15.8 -23.91,31.3 -36.27,46.6 l -36.76,46.2 20.01,38.3 c -51.07,29.4 -62.05,65.2 -70.52,109.9 -4.08,22.3 -8.64,46.2 -17.22,72.3 -8.79,26 -21.41,53.9 -44.14,83.6 -2.48,-10.6 2.96,-25.5 -5.04,-21.3 -8.6,22.4 -26.03,58.2 -33.82,80.2 -3.9,11 -5.78,18.5 -2.63,19.2 3.09,0.8 11.14,-5.2 25.67,-21.6 -9.94,17.3 -25.86,45.1 -43.18,75.2 -8.53,15.2 -17.97,30.8 -27.45,46 -9.41,15.2 -18.71,29.9 -27.4,43.1 -35.95,52.7 -61.89,80.8 -42.21,19.5 12.01,18.7 60.22,-84.8 78.34,-129.7 -14.39,-5.1 -34.29,19.3 -57.21,45.5 -11.32,13.1 -23.09,26.8 -34.71,37.6 -11.92,10.7 -23.78,18.5 -34.65,20 0.56,5 -4.04,20.9 -6.44,33.1 l -24.76,3.5 c -7.19,17.7 -15.91,34.6 -24.77,51.4 -9.13,16.6 -18.01,33.1 -28.58,48.7 -20.82,31.3 -41.63,61.7 -64.03,90.1 -10.93,14.3 -21.61,28.4 -31.82,42.4 -10.45,13.9 -21.02,27.3 -30.55,41 -9.63,13.6 -18.44,27.3 -26.53,41 -8.53,13.4 -16.13,27 -22.6,40.9 -5.63,-0.9 -14.59,2.2 -26.73,10.5 -6.17,4.1 -12.72,9.7 -20.83,16.2 -8.06,6.6 -16.97,14.6 -26.76,24.1 l 23.29,29.3 -32.18,28.6 c -10.76,9.5 -22.49,18.3 -33.72,27.4 -22.88,18 -44.87,36.7 -69.39,53.2 12.18,-30.2 21.42,-61.8 30.62,-92.3 -9.43,6.7 -18.52,13.5 -27.3,20.4 -4.36,3.5 -8.68,6.9 -12.96,10.3 -4.41,3.3 -8.78,6.6 -13.12,9.9 -17.3,13.2 -33.55,26.6 -49.08,40.3 -3.87,3.5 -7.71,6.9 -11.53,10.3 -3.98,3.3 -7.93,6.5 -11.86,9.7 -7.84,6.6 -15.53,13.1 -23.11,19.7 -7.57,6.7 -15.06,13.4 -22.49,19.9 -7.45,6.7 -14.58,13.6 -22.41,19.6 -15.44,12.7 -30.67,25.1 -45.81,37.5 -7.71,6.2 -15.39,12.3 -23.06,18.5 l -24.38,16.7 c -16.41,11 -33.17,21.8 -50.47,32 -8.53,5.4 -17.69,9.7 -26.92,14 -9.23,4.3 -18.62,8.4 -28.19,12.4 -7.61,-5.6 -17.85,-7.8 -30.22,-7.5 -12.38,0.4 -26.77,3.5 -43.63,7.2 -16.71,3.8 -35.13,9.8 -55.23,15.3 -10.01,3 -20.38,6 -31.04,9.2 -10.67,3.1 -21.71,5.8 -32.92,8.8 -44.82,12.2 -93.69,21.6 -140.26,24.5 -23.25,0.9 -45.96,1.3 -67.07,-1.8 -21.13,-2.7 -40.77,-7.2 -57.9,-14.8 41.78,-4.4 83.3,-11.5 124.23,-19.9 -66.15,7.9 -118.65,6.1 -163.32,2.7 -22.27,-2.3 -42.81,-4.4 -62.03,-8 -19.28,-3.2 -37.56,-6.5 -55.43,-10.6 -70.77,-16.2 -139.36,-31.8 -256.65,-58.6 46.55,20.9 83.16,33.6 115.24,44.2 32.29,10.2 60.18,18.2 91.33,26.5 31.11,8.5 65.4,17.4 111.32,28.1 46.07,10.2 103.71,23 183.85,32.4 -80.17,-3 -153.34,-7.8 -222.99,-14.5 -69.6,-6.8 -135.69,-15.6 -200.07,-28.3 -64.33,-12.8 -126.97,-29.6 -188.22,-53.3 -61.22,-23.6 -120.89,-54.6 -177.94,-95.5 11.76,-2.2 34.07,2.6 46.74,2.3 12.85,-0.6 15.62,-5.7 -10.32,-28 -31.29,2.4 -87.66,-29.9 -132.38,-57.8 -44.7,-27.9 -78.5,-51.3 -72.68,-24.1 -15.94,-14.7 -26.94,-28.5 -35.24,-41.2 -8.3,-12.7 -14.15,-23.8 -18.84,-34.7 -9.42,-21.7 -16.37,-39.2 -34.08,-57.7 -41.02,-23.7 -80.58,-50.1 -120.06,-77.5 -19.26,-14.3 -39.14,-28.1 -57.96,-43.2 l -28.51,-22.5 -27.23,-23 11.22,1.7 c -7.66,-13.1 -15.4,-26 -23.21,-38.7 -7.73,-12.8 -16.01,-25 -23.18,-37.9 -14.86,-25.4 -30.07,-50 -45.62,-74 -14.64,-24.6 -29.34,-48.8 -44.56,-72.3 l -11.37,-17.7 -10.77,-17.9 c -7.33,-11.8 -14.64,-23.6 -21.93,-35.4 -58.21,-93.8 -116.2,-185.4 -168.89,-280.1 -52.52,-94.7 -101.13,-191.8 -140.6,-293.9 -39.33,-102.1 -68.54,-209.2 -83.09,-321.9 l 21.29,4.4 -25.97,-52.3 c -5.91,-12.1 -11.55,-24.2 -17.18,-36.3 24.83,46.7 11.26,-59.6 25.95,-68.4 -30.96,-91.5 -56.22,-183.9 -82.95,-277.1 16.58,-8.3 58.21,3.9 59.37,73.8 3.49,-54.8 -10,-108.2 -21.68,-160.5 -12.66,-52.1 -27.98,-102.7 -33.02,-149.6 l 20.02,30.8 c -3.59,-15.6 -7.84,-31.2 -10.9,-46.8 l -9.33,-47 24.9,-0.3 c -4.6,-38.9 -6.95,-80.3 -8.53,-121.4 -0.36,-10.2 -0.71,-20.5 -1.06,-30.7 -0.25,-10.2 0.11,-20.3 0.13,-30.3 0.15,-20 0.29,-39.6 0.42,-58.4 0,-75.2 -3.98,-138 -21.69,-167.3 l 39.08,19.4" /></g><g
         transform="scale(1.08858)"
         id="g146"><path
           id="path148"
           style="fill:#040606;fill-opacity:1;fill-rule:nonzero;stroke:none"
           d="m 5448.28,16300 c -2.53,-4.8 -5.4,-10.8 -8.69,-18.6 2.92,6.2 5.8,12.4 8.69,18.6" /></g><path
         id="path150"
         style="fill:#040606;fill-opacity:1;fill-rule:nonzero;stroke:none"
         d="m 10688.3,14289.4 -2.7,5.2 c -2.4,-13.1 -4.7,-25.2 -7,-37.6 l 9.7,32.4" /><path
         id="path152"
         style="fill:#040606;fill-opacity:1;fill-rule:nonzero;stroke:none"
         d="m 5981.34,8767.8 c 6.48,0.8 13.47,2 21.59,3.8 -7.25,-1.1 -14.4,-2.6 -21.59,-3.8" /><path
         id="path154"
         style="fill:#040606;fill-opacity:1;fill-rule:nonzero;stroke:none"
         d="m 5956.57,8766.8 c -11.81,0.7 -20.76,2.3 -29.8,3.3 -9.05,0.9 -18.19,1.2 -30.4,-1 -6.12,-1 -12.97,-2.8 -21.05,-5 -8.15,-1.9 -17.49,-4.4 -28.44,-7.9 12.96,0.5 26.15,0 39.05,1.4 l 38.93,3.8 39.19,3.9 c 5.84,0.5 11.57,1.4 17.29,2.5 -9.52,-1.3 -17.68,-1.6 -24.77,-1" /><path
         id="path156"
         style="fill:#040606;fill-opacity:1;fill-rule:nonzero;stroke:none"
         d="m 5978.62,8833 -20.3,-0.6 c -6.75,-0.1 -13.67,0.5 -20.45,0.8 l -2.65,-22.6 21.44,4.8 c 7.12,1.7 14.04,4.1 21.07,6.1 l 42.01,12.8 -41.12,-1.3" /><path
         id="path158"
         style="fill:#040606;fill-opacity:1;fill-rule:nonzero;stroke:none"
         d="m 2979.51,15534 3.48,23.5 c -34.42,-26.6 -22.55,-27.5 -3.48,-23.5" /><path
         id="path160"
         style="fill:#040606;fill-opacity:1;fill-rule:nonzero;stroke:none"
         d="m 4594.04,15649.9 -33.85,-4 c 4.81,-4.3 10.38,-8.1 15.5,-12.2 8.68,1.7 15.24,6.6 18.35,16.2" /><path
         id="path162"
         style="fill:#040606;fill-opacity:1;fill-rule:nonzero;stroke:none"
         d="m 2551.83,15211.7 c -6.29,-2.4 -13.69,-6.4 -21.97,-12.2 -8.09,-5.8 -17.05,-13.5 -26.64,-22.9 12.65,3.4 24.86,7.9 36.66,13.2 11.97,5.1 23.67,10.9 34.95,17.2 -2.25,7.7 -10.42,9.4 -23,4.7" /><path
         id="path164"
         style="fill:#040606;fill-opacity:1;fill-rule:nonzero;stroke:none"
         d="m 4961.59,15396.1 c 20.4,-21.6 39.08,-39.3 58.2,-59 -8.91,17.8 -28.59,40.1 -58.2,59" /><path
         id="path166"
         style="fill:#040606;fill-opacity:1;fill-rule:nonzero;stroke:none"
         d="m 4656.81,9124.2 -39.09,34 c -5.38,8 -6.62,13.5 -6.05,17.8 25.09,-15.2 50.45,-29.8 75.92,-44.2 3.32,-9.4 -4.32,-13.8 -30.78,-7.6 z m -1198.98,768.2 c -5.26,23.7 -5.03,50.9 -32.4,91.4 26.55,-20.2 42.17,-37 52.02,-51.4 10.15,-14.1 13.9,-26.4 15.73,-38.2 3.68,-23.7 -0.3,-45.8 23.83,-77.4 -45.12,29.8 -54.26,51.6 -59.18,75.6 z m -93.71,200.2 c 68.38,-44.9 66.89,-57.5 92.89,-103.8 -20.07,5.1 -66.69,57.2 -92.89,103.8 z m -581.95,1277.2 c -5.89,7.7 -12.49,18 -20.75,29.1 -7.2,9.8 -15.24,20.3 -25.31,30.2 10.53,-7.1 15.19,18.3 9.78,53 17.53,-42 35.52,-83.8 54.08,-125.4 -5.92,-0.2 -11.45,4.8 -17.8,13.1 z m -457.35,2204.8 c -0.17,-11.3 -0.36,-22.5 -0.44,-33.8 l -7.18,-5 c 2.25,12.9 4.81,25.9 7.62,38.8 z m -26.62,-1069 -15.65,49.9 c -37.71,34.9 -6.46,-82.6 -28.24,-97.1 -23.91,57.8 -25.64,200.9 -9.97,150.6 19.64,-62.8 28.74,-45 36.86,-22 8.11,23.1 15.25,51.3 30.67,11 l -15.5,66 c 53.44,-101.9 -21.76,-83.6 1.83,-158.4 z m -94.3,1192.2 c 1.05,15.5 7.65,37.4 14.55,61 7.26,23.7 14.57,49.1 20.89,71.7 12.22,45.2 13.89,79.8 -24.04,69.1 l 29.81,23.9 0.77,-25.6 7,25.7 7.83,25.5 15.64,50.8 c 5.06,-35.4 2.81,-67.1 -1.4,-96.4 -4.32,-29.2 -12.53,-55.8 -22.09,-80.3 -17.95,-49.1 -41.26,-90.2 -48.96,-125.4 z M 2191.01,12660 c -7.5,9.1 -13.48,18.2 -18.18,27 -4.53,8.8 -7.45,17.5 -9.54,25.9 -4.09,17 -4.1,33 -1.94,48.3 4.3,30.4 17.25,57.5 23.35,82 0.86,6.9 1.3,13.2 3.21,21.2 -0.23,-6.8 -1.42,-14.1 -3.21,-21.2 -5.31,-42.2 6.86,-69.6 14.86,-95.5 8.13,-25.9 11.31,-50.4 -8.55,-87.7 z m 155.21,2127.2 c 17.14,13.5 43.14,48.2 67.53,77.9 12.35,14.9 23.82,28.5 34.97,37.5 11.09,8.9 20.63,13.3 27.49,9.8 -21.84,-20.4 -34.22,-43.2 -43.07,-65.2 -8.78,-22 -13.48,-43.2 -17.66,-61.4 -6.97,-37 -12.07,-61.7 -45.89,-58.3 21.42,31.7 30.87,47.4 40.61,73.2 -13.06,-4.4 -32.98,-21.2 -48.04,-30.3 -15.01,-9 -24.82,-10.2 -15.94,16.8 z m 231.42,380.1 c 8.54,14.3 18.9,28.1 34.5,39.5 l -34.5,-39.5 c -21.26,-37.6 -23.92,-73.7 -52.27,-64.4 16.72,22.1 34.73,43.1 52.27,64.4 z m 117.14,-239.7 c -16.01,-23.5 -31.37,-47.5 -46.13,-71.7 -12.46,-5.7 -22.27,-1.1 -26.96,20 23.79,-2.3 48.25,21 73.09,51.7 z m 115.07,236.5 c 37.71,39.5 45.24,53.9 61.85,29.5 26.89,9.8 46.75,50.6 74.63,59.2 -7.48,-11.2 -14.45,-20.2 -20.89,-27.8 -6.3,-7.8 -12.24,-13.8 -17.93,-18.7 -11.35,-9.7 -21.9,-14.4 -31.94,-17.9 -20.08,-6.7 -40.71,-5.7 -65.72,-24.3 -9.65,-10.5 -21.3,-21.7 -35.7,-36.2 12.83,18.1 24.89,28 35.7,36.2 z m 441.75,327.4 c 23.83,-1.8 47.34,-0.9 70.6,2.5 14.67,1.7 29.12,4.7 43.67,8.1 -36.93,-16.7 -73.17,-35.1 -108.77,-54.9 -0.09,0.7 -0.14,1.5 -0.28,2.3 -1.82,11.3 -7.84,21.1 -5.22,42 z m 2278.19,-734 c 13.76,-8.2 27.99,-20.6 41.76,-39.5 -13.76,13.3 -27.52,26.6 -41.76,39.5 -30.09,18.8 -58.61,21.2 -81.53,32.7 -22.9,11.5 -40.04,31.9 -49.36,86.5 44.73,-38.5 87.21,-79.3 130.89,-119.2 z m 68.53,-244.2 -51.34,1.1 c -15.93,30.9 -28.18,54.7 -36.79,75.8 -8.72,21 -14.33,38.7 -18.74,56.3 -8.61,35.2 -13.19,68.6 -28.94,124.8 26.38,-22.8 44.78,-44.2 56.31,-64 11.42,-19.9 16.58,-37.7 17.48,-52.7 1.8,-30.1 -13.42,-48.9 -29.27,-51.3 40.74,-88.5 55.07,-53.7 91.29,-90 z m 329.87,-509.6 c 31.63,-76.6 -3.04,-46.7 -6.12,-62 -0.85,1.4 -1.7,2.7 -2.54,4.1 -9.06,31.6 -10,57.6 8.66,57.9 z m 121.37,-61.4 c 15.93,0.1 44.3,-35.6 69.18,-77.4 24.33,-42.2 45.71,-90 49.96,-112.7 -18.43,29.2 -51.68,82 -78.65,124.9 -27.56,42.4 -48.34,75.1 -40.49,65.2 z m 146.14,-185.7 c 4.76,0.4 21.26,-12.4 31.29,-14.1 -3.73,19.8 -8.09,39.3 -12.41,58.9 26.8,-50.1 22.16,-60.2 12.41,-58.9 l 9.37,-49.3 c -37.81,50.2 -45.18,63.2 -40.66,63.4 z m 248.77,-838.9 c 19.71,-34.2 38.12,-83.8 45.98,-103.7 -0.66,-12.9 -0.88,-26.3 -0.91,-39.9 -21.29,58.1 -43.43,115.8 -66.38,173.2 6.64,-6.3 13.94,-16.9 21.31,-29.6 z m 140.03,-377.1 c 9.25,-2.6 17.96,3.2 23.18,14.5 -2.2,17 -2.24,32.5 2.87,41.5 4.84,-14.3 2.81,-30.3 -2.87,-41.5 2.77,-22.3 10.95,-48.6 19.67,-72.9 8.9,-24.2 19.62,-46.1 29.37,-58.9 12.12,22.3 -10.42,87.1 -7.59,115.8 18.51,-20.8 28.02,-52.9 34.07,-87.3 5.89,-34.5 8.88,-71.2 11.47,-102.4 5.37,-62.4 15.01,-102 66.68,-54 -1.75,-45.7 1.6,-196.8 -31.78,-152.7 -5.59,28.5 -13.12,63.2 -24.1,99.9 -10.84,36.7 -23.52,75.8 -36.86,113.8 -28.37,75.4 -58.87,146.3 -84.11,184.2 -7.92,2.8 -15.85,10.3 -22.97,28.8 6.18,-4.1 14.25,-15.3 22.97,-28.8 z m 182.79,-604 c 1.47,-21.6 1.78,-44.2 1.59,-67.2 -0.2,-23 -0.99,-46.6 -1.9,-70.2 -0.21,-5.8 -0.6,-11.7 -0.92,-17.5 -17.52,90.5 -37.05,180.6 -58.48,270.2 1.11,14 2.22,27.9 3.33,41.3 24.67,-23.7 38.44,-56.9 47.3,-95.3 4.33,-19.2 7.21,-39.8 9.08,-61.3 z m 89.33,-489.7 5.28,-59.2 -26.96,81.7 z m 43.08,-635.8 c 19.37,-185.5 12.16,-382.8 -19.64,-577.1 -8.69,-53.7 -19.51,-107.1 -31.92,-159.8 19.25,139.1 28.36,280.2 31.23,421 0.23,0.7 0.44,1.5 0.68,2.2 4.95,16.5 10.65,33 15.53,50.4 4.97,17.3 8.7,35.5 10.14,55.1 1.51,19.5 0.45,40.5 -5.04,63.5 -6.42,-11 -13.44,-21.3 -20.35,-32.4 0,0.6 0,1.1 0,1.6 -0.22,35.6 -0.85,71.2 -1.69,106.8 1.61,2.7 3.61,7.5 6.21,15.2 3.92,11.3 8.91,28.6 14.85,53.5 z m 10.44,-951.1 c -4.84,-22.6 -12.77,-42.4 -21.44,-60.8 -8.6,-18.4 -19.35,-35.2 -28.71,-52.1 -4.79,-8.4 -9.26,-16.9 -13.61,-25.5 -4.49,-8.6 -8.6,-17.5 -12.15,-26.7 -0.95,15.2 -1.39,30.1 -2.93,45.2 -13.11,-28 -26.14,-50.1 -37.43,-68.2 -11.75,-18 -22.92,-31.7 -32.81,-43 -9.47,-10.8 -18.38,-19.1 -26.77,-26.2 8.85,24.2 17.26,48.6 25.14,73.1 1.16,-2 2.21,-4.1 3.11,-6.6 19.08,60.6 43.87,135 68.62,203.2 11.74,34.1 25.08,66.4 37.29,94.4 6.3,14.1 12.78,26.9 19.37,38.3 6.28,11.5 12.73,21.4 19.3,29.6 2.29,-11.2 2.91,-22.6 2.21,-34 -0.95,-11.5 -3.18,-22.9 -6.26,-34.3 -3.08,-11.3 -7.01,-22.5 -11.37,-33.3 -4.62,-10.8 -9.73,-21.2 -14.81,-31.1 -19.87,-39.8 -41.86,-70.4 -35.49,-84.5 25.3,38.6 41.68,123.6 71.76,119.6 3.32,-29.2 1.31,-54.5 -3.02,-77.1 z m 12.38,517.7 c 11.7,-17.1 23.05,-34.4 34.28,-51.8 -14.35,-17.1 -28.33,-34 -42.96,-50.7 3.17,34.1 6.41,68.3 8.68,102.5 z M 6659.13,9357.3 c -5.49,-10 -13.02,-20.7 -19.8,-33.1 -14.26,-24.3 -28.17,-54.2 -47.28,-80.9 -9.09,-13.7 -18.43,-27.3 -27.91,-40.1 -4.56,-6.5 -9.79,-12.4 -15.1,-17.9 -5.25,-5.5 -10.51,-10.8 -15.75,-15.8 -10.5,-9.9 -20.94,-18.3 -31.15,-24.7 -5.12,-3.2 -10.13,-5.9 -15.15,-7.9 -5.25,-1.8 -10.39,-3.1 -15.41,-3.6 9.5,8.8 17.64,19 26.11,28.9 l 25.28,29.7 c 17.55,19.1 31.76,41 47.17,61.8 -19.19,-19.6 -36.5,-39.9 -56.08,-57.3 -9.37,-9 -18.61,-17.9 -27.7,-26.6 -9.01,-8.8 -17.72,-17.5 -27.37,-24.9 -9.32,-7.6 -18.46,-15.1 -27.41,-22.2 76.67,72.2 143.6,155.9 197.86,249.7 12.67,7 29.34,17.1 46.72,8.5 -5.61,-5.7 -11.27,-13.8 -17.03,-23.6 z m -320.54,-317.5 c -9.35,-5.2 -18.64,-10.5 -27.84,-15.7 19.9,14.1 39.43,28.6 58.41,44 7.35,-0.3 15.78,1.2 27.09,7.6 -19.1,-10.8 -38.49,-23.2 -57.66,-35.9 z m -619.52,5285.8 c -1.2,-2.8 -3.22,-4.4 -6.2,-4.7 2.37,1.3 4.38,2.9 6.2,4.7 z M 5130.18,8931.3 c 60.96,-20.9 122.76,-39.3 185.39,-55 4.97,-1.9 9.94,-3.8 14.88,-5.3 -2.81,1.2 -5.45,2.4 -8.05,3.6 60.09,-14.9 120.92,-27.4 182.5,-37.2 2.27,-0.5 4.33,-0.8 6.39,-1.1 13.34,-2.1 26.68,-3.9 40.01,-5.4 7.28,-2.9 15.34,-5.6 24.24,-8 8.01,-2.2 16.59,-4.4 25.68,-6 9.13,-1.1 18.73,-2 28.69,-2.8 19.93,-1.3 41.29,-2.5 63.15,-2.2 21.84,1.4 44.18,3.5 66.14,5.7 5.49,0.6 10.95,1.2 16.39,1.8 5.43,0.6 10.75,1.9 16.07,2.9 10.58,2.1 20.99,4.2 31.13,6.3 21.13,3.6 40.65,8.7 58.05,13.6 21.23,4 42.32,8.5 63.21,13.7 4.87,0.4 9.53,0.8 13.22,1.1 1.41,1.3 2.41,2.4 3.06,3.2 75.89,20.3 149.22,48.6 218.77,84.3 0.12,-7.1 0.21,-14.2 0.24,-21.4 4.59,5.3 10.8,10.8 17.97,16.8 6.94,6.5 14.96,13.3 23.71,20.1 8.75,6.8 18.22,13.6 28.07,20.2 4.96,3.3 9.98,6.6 15.01,9.8 5.05,3.3 9.75,7 14.69,10.4 19.53,13.6 39.25,25.5 56.56,33.6 16.98,8.5 30.82,14.3 40.29,12.9 3.83,-10.8 -2.1,-23.8 -14.09,-38.1 -12.79,-13.2 -31.84,-27.4 -52.95,-41.3 -20.63,-14.8 -45.72,-25.7 -67.82,-37.4 -11.1,-5.7 -21.77,-11.3 -31.6,-16.4 -10.12,-4.5 -19.25,-8.8 -26.93,-13 70.49,31 123.2,56.7 167.72,77.8 11.08,5.4 22.33,9.5 32.13,14.8 10.06,5.1 19.66,9.9 28.91,14.6 18.62,9.4 36.63,17.5 53.5,26.7 16.39,9.7 32.39,19.6 48.56,30.6 8.08,5.6 16.2,11.4 24.42,17.6 8.11,6.3 15.58,13.8 23.59,21.4 15.7,15.6 32.5,32.9 49.22,54.2 15.77,22.1 32.28,47.6 49.65,77.2 l -39.98,-27.6 c 72.21,152.5 191.66,282.7 236.59,421.7 -3.55,-41.6 10.6,-55.7 24.68,-40 17.63,79.9 34.1,158.3 48.73,237 14.78,78.7 28.23,157.6 39.09,237.9 21.01,160.6 32.18,327 21.63,503.3 16.13,35.2 32.55,70.8 47.8,106.5 l -37.01,6.1 c -9.66,85.9 3.14,95.6 17.66,97.7 14.47,2.1 31.09,-3.5 26.88,52.4 1.93,-42.5 -4.5,-35.1 -13.35,-44 33.38,202.8 -38.28,110 -33.74,222.6 -34.69,-55.7 -3.44,-216.5 -57.7,-168.8 4.2,24.9 7.3,51.5 9.69,79.1 2.21,27.6 2.91,56.1 3.69,84.9 0.54,28.7 1.33,57.7 1.09,86.1 -0.26,28.3 -0.45,56.2 -0.16,82.8 1.06,53.2 1.77,101.2 8.76,138.5 6.78,37.3 19.31,64 40.19,74.1 -40.55,182.9 -70.37,388.5 -103.63,587.5 -32.9,198.9 -68.88,390.9 -112.29,542.4 -27.29,36.4 -3.9,-29.2 -20.51,-17.1 1.56,16.7 0.67,35.4 -3.01,55.1 -3.68,19.7 -9.46,40.6 -16.56,61.9 -7.1,21.4 -15.52,43.2 -24.45,64.7 -9.17,21.4 -19.29,42.5 -28.88,62.6 -37.98,80.9 -74.38,145.5 -53.12,154.7 -16.52,25.9 -34.85,41.6 -51.18,52.1 -16.47,10.5 -31.15,15.8 -39.86,21 -4.62,40.6 -12.99,84.2 -24.98,129.3 -12.56,44.9 -27.75,91.7 -45.12,139.3 6.18,-24.2 11.79,-48.6 17.67,-72.8 l -8.89,4.9 -12.43,51.6 -13.43,51.4 4.2,-2.4 c -11.54,29.3 -23.7,58.9 -36.23,88.9 -12.8,29.9 -26.63,59.7 -40.26,89.9 -26.81,60.6 -57.13,120.5 -84.91,180.9 -57.94,119.6 -112.55,237.8 -151.21,348.7 36.27,-110.5 -37.46,-31.1 -48.43,-46.3 -1.65,30.5 -9.4,65.5 -22.28,103.3 -15.93,44.3 -38.12,92.9 -65.19,142.7 -54.89,99 -127.43,203.4 -198.04,292.5 -11.81,-9.8 -32.02,-3 -26.19,-31.5 -17.87,40.9 -35.08,82.6 -54.21,123.2 l -4,-24.9 c -38.74,44.3 -72.35,94.1 -106.17,143.2 -16.65,24.8 -32.73,49.9 -48.41,74.9 -16.04,24.7 -31.87,49.1 -47.36,73 -15.62,23.9 -30.69,47.4 -46.24,69.5 -15.67,21.9 -31.24,42.9 -46.83,62.3 -15.67,19.5 -30.99,37.6 -47.11,53.5 -16.27,15.9 -32.63,29.9 -49.2,41.3 60.3,-77.3 48.02,-88.1 36.5,-111.6 -27.13,31.8 -56.06,62.4 -83.86,93.7 -28.64,30.9 -57.39,61.9 -86.74,93.6 -29.81,31.8 -60.23,64.2 -91.8,97.9 -31.22,34.2 -65.38,68.6 -100.06,106.3 5.32,-10.6 7.3,-19.1 3.94,-23.5 -21.72,15.3 -43.24,35.5 -62.97,58.1 -9.86,11.4 -19.74,22.9 -29.45,34.2 -9.98,11.1 -19.83,22 -29.57,32.1 l -28.02,-24.9 c -9.15,9.6 -19.03,19 -29.49,28.3 -10.54,9.2 -22.19,17.8 -33.97,26.7 -23.89,17.5 -48.42,35.9 -75.42,52.7 -13.28,8.6 -26.66,17.4 -39.99,26.4 l -19.93,13.8 -20.39,13.5 c -13.58,9 -26.98,18.5 -40.08,28.4 -13.16,9.9 -25.65,20.7 -38.76,30.8 -16.02,-3.4 -40.32,5.4 -70.3,21.5 -14.73,8.4 -32.15,16.7 -50.2,26.9 -18.18,10.2 -37.61,21.2 -57.72,32.6 -20.95,10.4 -42.6,21.1 -64.38,32 -11.05,5.2 -21.93,10.9 -33.3,15.4 -11.4,4.5 -22.83,8.9 -34.21,13.1 -22.8,8.1 -45.21,16.1 -67.09,21.6 -22.14,4.8 -43.4,8.2 -63.01,9.8 -28.72,10 1.74,-6.5 18.06,-21.2 16.33,-14.8 18.97,-27.6 -61.02,-11.4 -5.28,40.8 -60.09,48.2 -113.35,54.4 -53.92,5 -106.15,6.2 -113.91,49.3 -51.06,-11.7 -100.93,-25 -149.09,-41.8 -12.65,12.8 -25.62,25.5 -38.92,38.2 -29.21,-25.2 -55.5,-36.9 -81.8,-43.7 -13.19,-3.3 -26.54,-4.6 -40.24,-5.2 -13.6,-1 -27.64,-0.9 -42.36,-0.6 -14.78,0.5 -30.01,0.6 -46.07,0.1 -16.01,-0.6 -33.19,-1.1 -50.77,-4.1 -17.63,-2.9 -36.47,-6.7 -55.84,-13.3 -19.23,-6.9 -39.8,-15.2 -60.5,-27.5 12.74,-4.4 32.83,0 26.01,-9.2 -30.02,-7.2 -77.82,-24.1 -106.31,-32.2 -28.61,-7.9 -39.3,-5.3 6.1,28.3 -23.27,-10.7 -60.41,-27.8 -99.96,-47.9 -39.42,-20.4 -81.16,-43.9 -114.27,-65.8 -33.28,-21.6 -58.06,-41.3 -65.26,-52 -7.28,-10.6 3.13,-12.1 40.57,0.2 -11.61,7.2 14.81,25.8 51.17,45.4 18.53,9.3 39.34,19 59.29,27.3 20.16,8.2 39.12,15.4 53.37,20.7 2.6,-9 -3.99,-19.6 -15.42,-31 -11.46,-11.5 -27.82,-23.9 -44.23,-37.6 -16.63,-13.4 -33.72,-27.5 -46.76,-42.1 -13.15,-14.3 -22.83,-28.3 -24.37,-41.8 -6.07,0.6 -25.24,-5 -40.09,-8.1 -1.25,-10.1 -2.4,-20.2 -3.32,-30.4 -84.22,-36.7 -155.79,-94.2 -219.26,-150.3 -63.8,-56.2 -119.9,-110.9 -182.1,-146.3 1.98,-6.6 -0.34,-17.5 -8.24,-32.6 -7.58,-15.4 -20.77,-34.9 -40.25,-59.4 l -38.81,24.8 c -38.7,-53.5 -74.1,-109.5 -107.22,-166.8 34.51,15.8 70.03,29.8 104.66,43 -25.28,-46 -52.68,-86.9 -78.46,-124.6 -12.94,-18.8 -26.29,-36.8 -39.91,-54.3 -6.7,-8.7 -13.9,-17.2 -20.34,-25.9 -6.54,-8.7 -13.02,-17.3 -19.46,-25.9 -26.01,-34.3 -53.03,-67.5 -75.57,-102.9 -11.63,-17.6 -22.92,-35.6 -33.63,-54 -10.62,-18.5 -19.3,-37.8 -27.88,-57.7 14.68,-16.9 12.84,-44.2 4,-78.6 -4.13,-17.3 -10.29,-36.3 -17.62,-56.7 -7.2,-20.3 -16.23,-41.9 -23.67,-64.6 -7.83,-22.6 -15.92,-46.1 -23.38,-69.8 -7.91,-23.7 -12.88,-47.7 -17.64,-71.3 -4.33,-23.6 -7.76,-46.8 -7.84,-68.9 0.08,-22.1 2.42,-43.1 7.84,-62.3 l 21.04,62.2 23.25,61.7 c -18.47,-67.2 -25.64,-121.2 -31.83,-167.8 -4.35,-46.7 -6.01,-86 -7.28,-124.6 -0.29,-38.6 -1.77,-76.4 -4.6,-120.2 -2.33,-43.8 -8.48,-93.7 -16.67,-156.5 -2.11,26.9 -4.22,50.5 -5.03,71.8 -0.62,21.4 -1.18,40.4 -1.7,58.1 -0.32,17.8 -0.88,34.3 -0.91,50.5 -0.01,16.3 -0.02,32.4 -0.04,49.2 -0.72,34 -1.5,71.2 -2.53,119.9 -1.9,49.1 -2.99,110.4 -3.35,193.4 -15.36,-163.6 -40.57,-299.9 -58.43,-434.5 -17.44,-134.2 -26.73,-266.3 0.47,-409.7 16.96,19.9 27.73,92.1 47.95,22.5 -9.3,-14.2 -13.17,-38.1 -14.48,-65.4 -0.63,-13.7 -0.71,-28.2 -0.34,-42.7 0.74,-14.4 1.48,-28.9 2.18,-42.6 1.53,-27.4 2.6,-51.8 0.37,-66.9 -1.86,-15 -7.44,-20.8 -19.96,-11.2 24.03,-86.9 68.4,-97.9 79.82,-150.5 l -6.92,-74.7 -3.9,-74.6 -7.52,-150.5 7.76,10.4 c 10.37,-30.2 22.56,-59.7 32.29,-89.3 10.05,-29.6 19.08,-59 27.22,-88.3 8.32,-29.3 15.03,-58.8 22.31,-87.8 7.7,-29 14.63,-58 20.95,-87 6.32,-29 12.02,-58 17.23,-87 2.49,-14.6 4.98,-29.1 7.47,-43.6 2.4,-14.5 5.64,-28.9 8.26,-43.3 11.01,-57.7 20.6,-115.6 29.83,-173.9 4.11,-29.3 10.53,-58 16.01,-87 5.74,-29 11.5,-58 17.27,-87.1 5.88,-29.2 11.93,-58.3 18.28,-87.6 7.25,-28.9 15.14,-57.8 23.27,-86.7 8.17,-29 16.77,-58 25.92,-86.9 9.37,-28.9 18.21,-58.2 30.2,-86.5 22.95,-57 48.59,-113.9 77.85,-170.1 l 18.85,18.6 c 3.5,-36.8 9.49,-72.8 15.06,-109.1 -5.18,57.9 51.14,-47.4 71.84,-45.4 l 21.52,-78.9 5.43,-19.8 6.14,-19.5 12.32,-38.9 49.81,-156.7 c 22.29,3.7 56.82,43.5 12.59,109.3 19.45,-24.4 34.73,-51 47.49,-79 12.68,-27.9 24.81,-56.1 34.91,-84.9 20.8,-57.2 37.43,-115.1 63.05,-162.1 -0.32,14 0.2,28.3 0.29,42.4 l 9.33,-25.6 c 3.25,-8.5 6.8,-16.8 10.19,-25.2 l 20.62,-50.5 25.51,17 c 20.22,-39.6 44.36,-80 69.05,-119.5 12.01,-19.9 25.6,-38.8 38.53,-57.4 12.9,-18.7 25.52,-37 37.63,-54.6 23.95,-35.3 45.05,-68.3 59.98,-97.6 15.05,-29.2 25.38,-53.8 25,-74.2 l 27.35,45.4 80.86,-174.5 -37.77,106.6 c 16.72,-20.4 33.84,-42.6 51.07,-66 8.74,-11.6 17,-23.8 26.16,-35.6 9.04,-11.8 18.16,-23.8 27.31,-35.8 36.28,-48.3 71.86,-98.4 104.06,-144.7 67.4,-90 121.6,-164.9 136.6,-181.9 l 0.84,26.6 c 15.01,-9.8 24.41,-22 33.32,-35.2 8.89,-13.2 16.53,-27.8 26.84,-43.1 l 0.79,39 c 26.71,-29.6 51.61,-55.9 75.51,-79.5 24.43,-23.2 47.54,-44 69.78,-63.2 11.16,-9.6 21.93,-18.9 32.84,-27.7 11.09,-8.6 21.94,-17.1 32.65,-25.4 21.54,-16.5 42.53,-32.5 63.75,-48.7 86.77,-63.1 172.9,-131.4 307.13,-251.1 20.23,-13.8 28.23,-17.9 28.68,-16.4 0.34,1.4 -6.78,8.3 -15.94,17.7 -18.49,18.5 -45.98,45.4 -41.86,51.9 13.82,-3.9 29.51,-12.5 45.51,-23.8 8,-5.6 16.08,-11.8 24.04,-18.5 8.19,-6.4 16.3,-13.1 24.08,-19.9 31.11,-27.3 57.31,-56.2 64.9,-69.1 1.14,51.7 -127.2,128 -15.18,89.6 52.78,-63.6 -21.23,63.5 87.97,-24.3 4.91,-25.2 10.07,-50.5 15.48,-76 35.63,-17.9 44.7,-11 57.52,-8.9 12.68,1.9 29.41,-0.2 81.11,-34.4 54.55,-46.9 9.78,-38 -25.54,-32.6 -35.17,5.5 -60.56,7.2 37.23,-56.5 25.74,-13.9 56.56,-20.6 90.02,-25.9 16.78,-2.5 34.32,-4.6 52.48,-6.6 18.33,-1.6 37.38,-3.3 57.34,-5 19.71,-2 39.94,-4.4 60.62,-8 10.38,-1.7 20.69,-4.1 31.44,-6.1 10.79,-2 21.69,-4.3 32.7,-7 44.19,-10.6 89.31,-29.2 138.97,-54.3 94.38,-19.8 77.29,9.3 68.12,29.8 -4.67,10.2 -7.59,18.4 5.35,17.7 6.54,-0.2 16.72,-3.5 33.23,-8.3 16.48,-4.8 38.81,-12.4 68.93,-23.7 l -72.63,41.5 -1.74,1.1" /><path
         id="path168"
         style="fill:#040606;fill-opacity:1;fill-rule:nonzero;stroke:none"
         d="m 2517.03,11223.2 c 0.49,-5.5 1.5,-12.4 3.19,-21.1 -1.02,7.1 -2.12,14.1 -3.19,21.1" /><path
         id="path170"
         style="fill:#040606;fill-opacity:1;fill-rule:nonzero;stroke:none"
         d="m 6472.89,13269.4 -4.87,2.7 c 4.5,-11.4 8.65,-22 12.88,-32.7 l -8.01,30" /></g></g></svg>